<?xml version="1.0" encoding="utf-8"?>
<!-- Generator: Adobe Illustrator 26.2.1, SVG Export Plug-In . SVG Version: 6.00 Build 0)  -->
<svg version="1.1" id="Layer_1" xmlns="http://www.w3.org/2000/svg" xmlns:xlink="http://www.w3.org/1999/xlink" x="0px" y="0px"
	 viewBox="0 0 148 24" style="enable-background:new 0 0 148 24;" xml:space="preserve">
<style type="text/css">
	.st0{fill:#AB8D69;}
</style>
<path class="st0" d="M24,9.1c-0.1-0.2-0.2-0.3-0.4-0.4l-7.6-1l-3.5-7.4c-0.2-0.4-0.8-0.4-0.9,0L8,7.7l-7.6,1C0.3,8.7,0.1,8.9,0,9.1
	c0,0.2,0,0.4,0.2,0.5l5.5,5.8l-1.5,7.9c0,0.2,0,0.4,0.2,0.5C4.5,24,4.8,24,4.9,23.9l7.1-3.7l7.1,3.7c0.1,0,0.2,0.1,0.2,0.1
	c0.1,0,0.2,0,0.3-0.1c0.2-0.1,0.2-0.3,0.2-0.5l-1.5-7.9l5.5-5.8C24,9.5,24,9.3,24,9.1z"/>
<path class="st0" d="M55,9.1c-0.1-0.2-0.2-0.3-0.4-0.4l-7.6-1l-3.5-7.4c-0.2-0.4-0.8-0.4-0.9,0L39,7.7l-7.6,1
	c-0.2,0-0.4,0.2-0.4,0.4c-0.1,0.2,0,0.4,0.1,0.6l5.5,5.8l-1.5,7.9c0,0.2,0,0.4,0.2,0.5s0.4,0.1,0.5,0.1l7.1-3.7L50,24
	c0.1,0,0.2,0.1,0.2,0.1c0.1,0,0.2,0,0.3-0.1c0.2-0.1,0.2-0.3,0.2-0.5l-1.5-7.9l5.5-5.8C55,9.5,55,9.3,55,9.1z"/>
<path class="st0" d="M86,9.1c-0.1-0.2-0.2-0.3-0.4-0.4l-7.6-1l-3.5-7.4c-0.2-0.4-0.8-0.4-0.9,0L70,7.7l-7.6,1
	c-0.2,0-0.4,0.2-0.4,0.4c-0.1,0.2,0,0.4,0.1,0.6l5.5,5.8l-1.5,7.9c0,0.2,0,0.4,0.2,0.5s0.4,0.1,0.5,0.1l7.1-3.7L81,24
	c0.1,0,0.2,0.1,0.2,0.1c0.1,0,0.2,0,0.3-0.1c0.2-0.1,0.2-0.3,0.2-0.5l-1.5-7.9l5.5-5.8C86,9.5,86,9.3,86,9.1z"/>
<path class="st0" d="M117,9.1c-0.1-0.2-0.2-0.3-0.4-0.4l-7.6-1l-3.5-7.4c-0.2-0.4-0.8-0.4-0.9,0L101,7.7l-7.6,1
	c-0.2,0-0.4,0.2-0.4,0.4c-0.1,0.2,0,0.4,0.1,0.6l5.5,5.8l-1.5,7.9c0,0.2,0,0.4,0.2,0.5s0.4,0.1,0.6,0.1l7.1-3.7l7.1,3.7
	c0.1,0,0.2,0.1,0.2,0.1c0.1,0,0.2,0,0.3-0.1c0.2-0.1,0.2-0.3,0.2-0.5l-1.5-7.9l5.5-5.8C117,9.5,117,9.3,117,9.1z"/>
<path class="st0" d="M148,9.1c-0.1-0.2-0.2-0.3-0.4-0.4l-7.6-1l-3.5-7.4c-0.2-0.4-0.8-0.4-0.9,0L132,7.7l-7.6,1
	c-0.2,0-0.4,0.2-0.4,0.4c-0.1,0.2,0,0.4,0.1,0.6l5.5,5.8l-1.5,7.9c0,0.2,0,0.4,0.2,0.5s0.4,0.1,0.5,0.1l7.1-3.7L143,24
	c0.1,0,0.2,0.1,0.2,0.1c0.1,0,0.2,0,0.3-0.1c0.2-0.1,0.2-0.3,0.2-0.5l-1.5-7.9l5.5-5.8C148,9.5,148,9.3,148,9.1z"/>
</svg>
