<svg xmlns="http://www.w3.org/2000/svg" width="1280" height="905" viewBox="0 0 1280 905" version="1.1"><path d="M 749.500 48.236 C 744.509 50.030, 740.871 52.654, 704 81.054 C 666.216 110.157, 648.324 124.391, 633 137.537 C 627.775 142.020, 613.375 153.943, 601 164.034 C 575.359 184.943, 509.559 239.705, 488.139 257.964 C 476.267 268.084, 473.558 269.971, 472.515 268.853 C 471.271 267.521, 443.283 230.946, 425.565 207.500 C 409.551 186.309, 397.100 169.176, 392.520 162.031 C 383.684 148.246, 376.807 142.814, 368.058 142.708 C 359.318 142.602, 351.643 147.856, 342 160.547 C 339.525 163.804, 325.791 181.551, 311.480 199.984 C 297.169 218.418, 279.622 241.150, 272.487 250.500 C 265.352 259.850, 253.226 275.150, 245.540 284.500 C 220.677 314.747, 213.764 326.751, 210.947 344.570 C 210.235 349.074, 209.656 387.175, 209.293 453.417 C 208.757 551.249, 208.808 555.387, 210.559 556.667 C 213.084 558.513, 216.399 558.333, 218.219 556.250 C 219.560 554.715, 219.821 542.176, 220.345 454 C 220.701 393.998, 221.353 350.793, 221.962 346.782 C 224.185 332.147, 232.607 317.656, 253.507 292.500 C 259.905 284.800, 270.823 271.075, 277.769 262 C 284.715 252.925, 299.668 233.575, 310.996 219 C 322.325 204.425, 335.806 186.875, 340.956 180 C 358.140 157.056, 361.327 154, 368.068 154 C 372.211 154, 376.500 158.551, 388.034 175.186 C 399.328 191.474, 451.754 261.113, 462.702 274.369 L 465.071 277.238 455.654 286.943 C 449.443 293.344, 446.003 297.708, 445.553 299.760 C 443.381 309.647, 442.429 361.553, 442.687 456 C 442.878 526.159, 443.652 547.817, 446.114 551.878 C 449.981 558.261, 462.395 560.505, 489 559.630 C 509.588 558.952, 513.654 558.174, 518.303 554.021 L 521.500 551.166 521.782 505.333 C 521.937 480.125, 521.642 433.400, 521.126 401.500 C 520.243 346.889, 520.064 343.070, 518.062 336.148 C 514.427 323.577, 510.704 317.539, 492.399 294.522 C 482.515 282.095, 480.993 279.714, 482.087 278.396 C 482.793 277.545, 492.399 269.181, 503.435 259.809 C 514.471 250.437, 524.625 241.796, 526 240.607 C 527.375 239.417, 539.075 229.702, 552 219.017 C 596.506 182.223, 609.473 171.467, 622.967 160.148 C 649.755 137.678, 673.208 118.868, 701.108 97.476 C 716.723 85.502, 732.772 72.960, 736.771 69.603 C 746.228 61.665, 753.084 58, 758.480 58 C 764.223 58, 764.929 58.494, 823.341 103.464 C 827.653 106.784, 835.144 112.425, 839.987 116 C 850.644 123.866, 876.914 143.595, 879 145.299 C 879.825 145.973, 888.150 152.344, 897.500 159.458 C 918.515 175.445, 960.527 209.251, 964 212.967 C 964.275 213.261, 967.875 216.426, 972 220 C 999.635 243.942, 1048.362 291.056, 1053.467 298.772 C 1055.837 302.353, 1056.029 303.687, 1056.953 323.031 C 1057.490 334.289, 1057.979 389.164, 1058.039 444.975 L 1058.147 546.450 1055.824 547.070 C 1053.404 547.714, 911.119 546.504, 860.407 545.408 L 831.314 544.779 830.596 467.139 C 829.818 382.959, 829.252 368.322, 826.575 363.145 C 823.800 357.778, 821.340 357.326, 791 356.605 C 775.875 356.245, 753.150 355.483, 740.500 354.911 C 724.597 354.191, 713.258 354.191, 703.753 354.908 C 688.855 356.032, 684.551 357.420, 682.957 361.613 C 682.373 363.149, 682 399.595, 682 455.097 C 682 555.338, 681.745 551.227, 688.171 554.629 C 691.268 556.269, 695.986 556.371, 755.902 556.098 L 820.304 555.804 819.755 585.004 C 819.232 612.750, 819.299 614.299, 821.102 616.102 C 823.371 618.371, 825.785 618.477, 828.500 616.426 C 830.399 614.992, 830.525 613.433, 831 585.708 L 831.500 556.500 848 556.772 C 857.075 556.921, 908.445 557.528, 962.156 558.121 C 1068.514 559.295, 1063.086 559.525, 1067.410 553.670 L 1069.500 550.841 1069.277 442.670 C 1069.051 333.237, 1068.288 304.018, 1065.478 297.294 C 1063.499 292.557, 1057.655 285.805, 1041.601 269.705 C 1024.124 252.179, 1010.312 239.061, 993.972 224.471 C 955.059 189.724, 937.207 175.431, 858.500 116.006 C 845.850 106.455, 831.900 95.886, 827.500 92.518 C 803.123 73.864, 789.745 63.489, 783.500 58.398 C 773.714 50.419, 766.119 46.980, 758.500 47.080 C 755.200 47.123, 751.150 47.643, 749.500 48.236 M 464.058 294.609 L 456.094 302.500 455.047 325.903 C 453.942 350.602, 453.812 506.297, 454.876 530.999 L 455.500 545.497 459.500 546.955 C 462.565 548.073, 468.271 548.384, 483.911 548.288 C 495.138 548.219, 505.825 547.880, 507.661 547.536 L 511 546.909 510.987 477.705 C 510.973 399.467, 509.730 350.960, 507.493 341.311 C 504.822 329.797, 500.013 321.960, 480.672 297.609 L 472.022 286.717 464.058 294.609 M 695.245 366.955 L 692.989 367.940 693.245 456.220 L 693.500 544.500 756.750 544.757 L 820 545.015 819.993 505.757 C 819.985 454.415, 818.176 372.198, 817.007 370.013 C 816.189 368.484, 813.214 368.226, 789.794 367.648 C 732.666 366.241, 697.473 365.983, 695.245 366.955 M 820.500 662.083 C 806.263 663.722, 795.410 670.691, 789.469 682.007 C 787.174 686.379, 786.242 701.174, 787.939 706.314 C 789.333 710.538, 796.255 718.042, 801.066 720.544 C 802.955 721.527, 810.025 724.237, 816.777 726.567 C 831.244 731.560, 835.470 734.363, 836.457 739.621 C 837.728 746.395, 832.138 751.035, 821.775 751.809 C 815.076 752.310, 809.495 750.450, 803.577 745.746 L 799.654 742.628 791.401 751.564 L 783.147 760.500 785.160 762.657 C 788.365 766.090, 798.111 770.821, 805.603 772.581 C 814.023 774.559, 830.258 774.044, 837 771.586 C 847.685 767.690, 856.627 758.787, 859.124 749.559 C 859.728 747.327, 860.245 742.279, 860.273 738.342 C 860.315 732.502, 859.830 730.200, 857.639 725.842 C 853.593 717.793, 847.835 713.778, 834.041 709.389 C 818.454 704.429, 813.369 701.648, 811.934 697.299 C 810.392 692.626, 812.071 688.890, 816.945 686.151 C 823.742 682.331, 836.666 683.673, 842.316 688.786 C 844.128 690.426, 844.523 690.150, 852.067 681.997 C 856.392 677.324, 859.946 673.153, 859.965 672.728 C 860.031 671.284, 850.740 666.076, 844.609 664.120 C 837.457 661.838, 828.903 661.116, 820.500 662.083 M 209 717.411 L 209 770.867 211.750 771.184 C 213.262 771.358, 218.662 771.357, 223.750 771.181 L 233 770.863 233.098 730.681 L 233.196 690.500 246.348 730.196 C 253.582 752.029, 259.812 770.191, 260.193 770.555 C 260.905 771.237, 277.874 771.529, 278.378 770.868 C 278.621 770.549, 292.739 729.391, 302.315 701.084 L 305.500 691.668 305.761 731.334 C 306.005 768.212, 306.145 771.005, 307.761 771.073 C 308.718 771.114, 314.112 771.226, 319.749 771.323 L 329.997 771.500 329.999 717.750 L 330 664 312.250 664.006 L 294.500 664.012 282.611 697.756 C 276.072 716.315, 270.404 731.859, 270.014 732.297 C 269.364 733.029, 264.776 720.927, 254.926 692.500 C 252.829 686.450, 249.758 677.675, 248.100 673 L 245.086 664.500 227.043 664.227 L 209 663.955 209 717.411 M 352 717.434 L 352 770.867 361.884 771.184 C 367.320 771.358, 372.495 771.355, 373.384 771.177 C 374.848 770.884, 375 765.827, 375 717.427 L 375 664 363.500 664 L 352 664 352 717.434 M 397.989 665.750 C 397.983 666.712, 397.965 690.806, 397.948 719.292 L 397.917 771.084 409.459 771.292 L 421.001 771.500 421.001 746.750 C 421 733.138, 421.358 722, 421.795 722 C 422.231 722, 424.234 724.138, 426.245 726.750 C 428.256 729.362, 430.936 732.627, 432.201 734.005 C 433.465 735.383, 441.171 744.270, 449.323 753.755 L 464.147 771 476.323 771.158 C 483.021 771.245, 490.413 771.379, 492.750 771.455 C 495.087 771.532, 497 771.314, 497 770.971 C 497 770.628, 491.481 764.307, 484.735 756.924 C 461.911 731.943, 447 714.971, 447 713.973 C 447 713.426, 457.012 702.582, 469.250 689.874 C 481.488 677.167, 491.860 666.147, 492.300 665.385 C 492.966 664.231, 490.629 664.003, 478.300 664.015 C 470.160 664.024, 463.037 664.361, 462.472 664.765 C 461.907 665.169, 454.260 673.150, 445.478 682.500 C 436.697 691.850, 427.603 701.525, 425.268 704 L 421.024 708.500 421.012 686.250 L 421 664 409.500 664 C 399.218 664, 397.999 664.185, 397.989 665.750 M 507.241 717.669 L 507.500 771.338 518.749 771.419 L 529.999 771.500 529.999 746.667 C 530 732.591, 530.385 721.978, 530.889 722.167 C 531.378 722.350, 541.081 733.413, 552.450 746.750 L 573.122 771 589.735 771 L 606.349 771 604.369 768.750 C 596.930 760.293, 573.886 734.712, 565.766 725.897 C 560.395 720.066, 556 714.813, 556 714.225 C 556 713.636, 566.237 702.497, 578.750 689.470 C 591.263 676.444, 601.650 665.384, 601.833 664.893 C 602.020 664.393, 595.400 664, 586.806 664 C 572.108 664, 571.362 664.097, 569.535 666.250 C 568.485 667.487, 559.273 677.441, 549.063 688.369 L 530.500 708.238 530.231 686.119 L 529.962 664 518.472 664 L 506.983 664 507.241 717.669 M 616 717.500 L 616 771 653.500 771 L 691 771 691 760.500 L 691 750 665.607 750 C 646.176 750, 640.119 749.707, 639.807 748.750 C 639.584 748.063, 639.579 743.112, 639.797 737.750 L 640.193 728 663.097 728 L 686 728 686 717 L 686 706 663.069 706 L 640.137 706 639.819 696.412 C 639.643 691.139, 639.688 686.639, 639.917 686.412 C 640.146 686.186, 651.058 686, 664.167 686 L 688 686 688 675 L 688 664 652 664 L 616 664 616 717.500 M 711 717.500 L 711 771 742.918 771 C 760.473 771, 775.548 771.273, 776.418 771.607 C 777.802 772.138, 778 770.826, 778 761.127 L 778 750.040 756.750 749.770 L 735.500 749.500 735.239 706.750 L 734.979 664 722.989 664 L 711 664 711 717.500 M 879 717.464 L 879 770.953 916.500 771.226 L 954.001 771.500 954 760.750 L 954 750 928.500 750 L 903 750 903 739 L 903 728 926 728 L 949 728 949 717 L 949 706 926 706 L 903 706 903 696 L 903 686 927.534 686 L 952.068 686 951.784 675.250 L 951.500 664.500 915.250 664.238 L 879 663.975 879 717.464 M 973 717.475 L 973 771 984.988 771 L 996.976 771 997.238 733.502 L 997.500 696.004 1006.985 711.752 C 1012.201 720.413, 1018.340 730.425, 1020.627 734 C 1022.914 737.575, 1028.931 747.339, 1033.997 755.697 C 1039.063 764.055, 1043.897 771.030, 1044.739 771.197 C 1045.581 771.364, 1052.734 771.364, 1060.635 771.199 L 1075 770.897 1075 717.449 L 1075 664 1063.012 664 L 1051.024 664 1050.762 701.039 L 1050.500 738.077 1044 727.454 C 1040.425 721.611, 1030.271 705.056, 1021.436 690.665 L 1005.371 664.500 989.186 664.225 L 973 663.950 973 717.475 M 273.703 798.383 C 260.530 803.287, 252.709 816.363, 254.391 830.672 C 255.020 836.019, 258.877 845.188, 261.068 846.542 C 261.773 846.978, 260.982 848.456, 258.882 850.622 C 255.854 853.745, 255.719 854.148, 257.201 855.630 C 258.683 857.112, 259.042 856.984, 261.670 854.043 L 264.527 850.845 269.912 853.550 C 276.981 857.100, 285.619 857.834, 293.474 855.550 C 301.753 853.144, 310.144 844.753, 312.550 836.474 C 315.303 827.007, 313.811 817.196, 308.340 808.778 C 306.594 806.091, 306.608 806.018, 309.486 803.015 C 312.163 800.220, 312.270 799.841, 310.794 798.365 C 309.318 796.890, 308.955 797.019, 306.339 799.946 L 303.491 803.134 298.560 800.378 C 294.550 798.136, 292.125 797.561, 285.565 797.296 C 280.320 797.084, 276.172 797.464, 273.703 798.383 M 573.500 797.954 C 572.400 798.409, 570.375 799.992, 569 801.471 C 565.338 805.411, 565.432 814.032, 569.199 819.724 L 571.897 823.802 567.910 826.441 C 562.527 830.003, 560.008 834.392, 560.004 840.216 C 559.997 849.320, 565.608 855.751, 574.427 856.745 C 581.579 857.551, 585.752 856.270, 590.632 851.771 L 595.085 847.667 599.330 851.833 C 602.772 855.211, 604.278 856, 607.288 856 C 611.012 856, 612.085 854.813, 609.750 853.277 C 609.063 852.825, 606.310 850.147, 603.634 847.326 L 598.768 842.196 603.884 833.504 C 606.698 828.723, 609 824.601, 609 824.343 C 609 824.084, 607.541 824.014, 605.758 824.187 C 602.913 824.462, 602.033 825.339, 598.589 831.331 L 594.662 838.163 588.312 831.493 L 581.963 824.823 586.054 822.075 C 593.530 817.054, 596.012 809.791, 592.544 803.085 C 589.960 798.088, 579.797 795.349, 573.500 797.954 M 755.994 797.934 C 748.474 800.222, 741.496 806.377, 737.827 813.958 C 734.625 820.573, 734.662 832.546, 737.905 839.779 C 741.121 846.953, 748.538 853.519, 755.814 855.634 C 762.909 857.697, 773.311 857.005, 781.250 853.941 L 787 851.722 787 837.361 L 787 823 776.934 823 L 766.867 823 767.184 825.750 C 767.490 828.413, 767.714 828.509, 774.250 828.796 L 781 829.091 781 838.465 L 781 847.839 775.924 849.525 C 772.410 850.692, 768.642 851.090, 763.674 850.818 C 754.773 850.331, 749.407 847.250, 745.305 840.272 C 742.821 836.046, 742.500 834.520, 742.500 826.926 C 742.500 819.129, 742.774 817.908, 745.526 813.452 C 750.022 806.174, 756.320 802.623, 764.832 802.565 C 771.225 802.522, 773.823 803.304, 779.739 807.050 C 781.750 808.323, 782.194 808.250, 784.114 806.331 L 786.250 804.194 782.293 801.575 C 780.117 800.135, 776.801 798.517, 774.925 797.978 C 770.976 796.846, 759.658 796.820, 755.994 797.934 M 205 801 L 205 804 214.500 804 L 224 804 224 830 L 224 856 227 856 L 230 856 230 830 L 230 804 239.500 804 L 249 804 249 801 L 249 798 227 798 L 205 798 205 801 M 325.667 798.667 C 325.300 799.033, 325 812.083, 325 827.667 L 325 856 328 856 L 331 856 331.115 833.750 C 331.178 821.513, 331.140 810.600, 331.029 809.500 C 330.513 804.383, 334.195 812.326, 349.015 848.301 C 351.301 853.850, 352.680 856.015, 353.792 855.801 C 354.788 855.609, 358.898 847.032, 365.141 832.120 C 370.523 819.260, 375.169 808.498, 375.464 808.203 C 375.759 807.908, 376 818.542, 376 831.833 L 376 856 379 856 L 382 856 382 826.945 L 382 797.890 377.414 798.195 L 372.829 798.500 363.498 820.833 C 358.365 833.117, 353.999 843.335, 353.793 843.540 C 353.436 843.897, 338.271 807.991, 335.932 801.250 C 334.899 798.272, 334.449 798, 330.569 798 C 328.239 798, 326.033 798.300, 325.667 798.667 M 397.667 798.667 C 397.300 799.033, 397 812.083, 397 827.667 L 397 856 400 856 L 403 856 403 842.500 L 403 829 407.877 829 L 412.755 829 420.627 842.250 C 427.933 854.545, 428.734 855.523, 431.750 855.813 C 433.572 855.989, 435 855.660, 435 855.065 C 435 854.482, 431.843 848.847, 427.985 842.545 C 419.714 829.033, 419.243 828, 421.359 828 C 424.733 828, 429.870 824.576, 431.891 820.981 C 437.109 811.696, 432.337 801.310, 421.816 799.054 C 416.402 797.893, 398.724 797.609, 397.667 798.667 M 445.667 798.667 C 445.300 799.033, 445 812.083, 445 827.667 L 445 856 463.500 856 L 482 856 482 853 L 482 850 466.500 850 L 451 850 451 839.500 L 451 829 465 829 L 479 829 479 826 L 479 823 465 823 L 451 823 451 813.500 L 451 804 466 804 L 481 804 481 801 L 481 798 463.667 798 C 454.133 798, 446.033 798.300, 445.667 798.667 M 493 826.882 L 493 856 496 856 L 499 856 499 842.500 L 499 829 503.797 829 L 508.594 829 516.518 842.500 C 524.136 855.477, 524.570 856, 527.721 856 C 529.525 856, 531 855.649, 531 855.219 C 531 854.790, 527.625 848.930, 523.500 842.197 C 519.375 835.465, 516 829.573, 516 829.103 C 516 828.634, 517.287 827.993, 518.860 827.678 C 528.416 825.767, 533.003 812.358, 526.799 804.471 C 523.064 799.724, 519.461 798.648, 505.750 798.190 L 493 797.764 493 826.882 M 636 801 L 636 804 645.500 804 L 655 804 655 830 L 655 856 658 856 L 661 856 661 830 L 661 804 670.500 804 L 680 804 680 801 L 680 798 658 798 L 636 798 636 801 M 700.666 798.750 C 700.241 799.454, 677.333 852.051, 676.276 854.750 C 675.941 855.606, 676.894 856, 679.297 856 C 682.710 856, 682.892 855.799, 685.833 848.750 L 688.859 841.500 703.679 841.242 L 718.500 840.984 721.533 848.242 C 724.367 855.026, 724.784 855.521, 727.918 855.823 C 730.755 856.097, 731.195 855.866, 730.772 854.323 C 730.497 853.321, 724.944 840.237, 718.432 825.250 C 707.072 799.106, 706.480 798, 703.855 798 C 702.349 798, 700.914 798.337, 700.666 798.750 M 795.184 800.750 L 795.500 803.500 804.733 803.787 L 813.966 804.075 814.233 829.787 L 814.500 855.500 817.119 855.804 C 819.101 856.034, 819.876 855.582, 820.302 853.951 C 820.613 852.765, 820.784 841.041, 820.683 827.897 L 820.500 804 830.250 804 L 840 804 840 801 L 840 798 817.434 798 L 794.867 798 795.184 800.750 M 848.235 826.750 L 848.500 855.500 866.750 855.773 L 885 856.045 885 853.023 L 885 850 869.500 850 L 854 850 854 839.500 L 854 829 868 829 L 882 829 882 826 L 882 823 868 823 L 854 823 854 813.500 L 854 804 869 804 L 884 804 884 801 L 884 798 865.985 798 L 847.969 798 848.235 826.750 M 896 827 L 896 856 899 856 L 902 856 902 841.500 C 902 833.378, 902.403 827, 902.917 827 C 903.421 827, 910.022 833.525, 917.585 841.500 C 930.627 855.251, 931.535 856, 935.169 856 C 937.276 856, 939 855.740, 939 855.422 C 939 855.105, 932.587 848.126, 924.750 839.913 C 916.913 831.701, 910.420 824.649, 910.323 824.241 C 910.226 823.834, 913.601 820.448, 917.823 816.717 C 922.045 812.987, 928.425 807.264, 932 804.001 L 938.500 798.067 934.235 798.033 C 930.168 798.002, 929.376 798.545, 917.235 809.690 C 910.231 816.119, 904.350 821.744, 904.167 822.190 C 903.983 822.635, 903.421 823, 902.917 823 C 902.410 823, 902 817.409, 902 810.500 L 902 798 899 798 L 896 798 896 827 M 947 827 L 947 856 949.982 856 L 952.964 856 953.232 831.750 L 953.500 807.500 963.500 821.705 C 969 829.518, 976.648 840.451, 980.496 846.001 C 987.295 855.807, 987.591 856.083, 990.996 855.796 L 994.500 855.500 994.500 827 L 994.500 798.500 991.750 798.184 L 989 797.867 989 821.517 C 989 835.962, 988.632 845.037, 988.053 844.833 C 987.103 844.499, 984.420 840.800, 965 813.052 C 954.659 798.277, 954.443 798.048, 950.750 798.024 L 947 798 947 827 M 1010 827 L 1010 856 1013 856 L 1016 856 1016 827 L 1016 798 1013 798 L 1010 798 1010 827 M 1031.667 798.667 C 1031.300 799.033, 1031 812.083, 1031 827.667 L 1031 856 1034 856 L 1037 856 1037 841.500 C 1037 833.419, 1037.404 827, 1037.913 827 C 1038.415 827, 1045.018 833.525, 1052.585 841.500 C 1065.628 855.245, 1066.544 856, 1070.172 856 C 1072.278 856, 1074 855.739, 1074 855.420 C 1074 855.102, 1067.588 848.110, 1059.750 839.884 C 1051.912 831.658, 1045.427 824.606, 1045.337 824.214 C 1045.248 823.821, 1051.519 817.875, 1059.274 811 L 1073.373 798.500 1069.164 798.191 C 1065.320 797.910, 1064.502 798.308, 1059.727 802.794 C 1056.852 805.494, 1050.675 811.194, 1046 815.458 L 1037.500 823.212 1037.220 810.606 C 1036.945 798.194, 1036.905 798, 1034.637 798 C 1033.370 798, 1032.033 798.300, 1031.667 798.667 M 276.591 803.517 C 266.695 807.285, 261 815.764, 261 826.728 C 261 832.637, 262.657 838.677, 265.078 841.594 C 265.856 842.532, 269.412 839.326, 279.412 828.671 C 286.726 820.877, 294.152 812.835, 295.914 810.801 L 299.118 807.101 295.133 805.068 C 289.742 802.317, 281.542 801.632, 276.591 803.517 M 575.182 804.500 C 571.653 807.470, 571.150 810.455, 573.434 814.872 C 576.577 820.950, 579.375 821.195, 584.821 815.871 C 590.077 810.732, 588.317 803.742, 581.432 802.414 C 579.030 801.951, 577.673 802.404, 575.182 804.500 M 403 813.237 C 403 818.423, 403.188 822.855, 403.418 823.084 C 403.648 823.314, 407.908 823.257, 412.885 822.956 C 420.607 822.491, 422.305 822.062, 424.467 820.031 C 427.878 816.827, 427.931 811.195, 424.588 807.306 C 422.306 804.652, 421.656 804.481, 412.588 804.153 L 403 803.807 403 813.237 M 499 813.333 C 499 818.467, 499.188 822.855, 499.418 823.084 C 499.648 823.314, 503.983 823.252, 509.052 822.946 C 517.534 822.435, 518.456 822.171, 520.634 819.639 C 521.989 818.064, 523 815.602, 523 813.878 C 523 806.716, 518.615 804, 507.050 804 L 499 804 499 813.333 M 698.231 818.724 C 695.379 825.751, 692.762 832.288, 692.416 833.250 C 691.839 834.852, 692.765 835, 703.393 835 C 710.767 835, 715 834.620, 715 833.959 C 715 832.858, 706.607 812.093, 704.599 808.224 C 703.517 806.142, 702.978 807.032, 698.231 818.724 M 286 827.921 C 277.475 837.154, 270.500 845.337, 270.500 846.104 C 270.500 849.025, 277.047 851.120, 285.169 850.797 C 291.790 850.534, 293.431 850.082, 297.169 847.490 C 299.990 845.535, 302.486 842.572, 304.328 838.994 C 306.898 834.001, 307.117 832.771, 306.729 825.500 C 306.440 820.068, 305.692 816.459, 304.401 814.256 C 303.356 812.472, 302.275 811.040, 302 811.073 C 301.725 811.106, 294.525 818.687, 286 827.921 M 572.213 830.139 C 565.231 834.609, 564.007 842.207, 569.400 847.600 C 572.384 850.584, 573.428 851, 577.939 851 C 582.546 851, 583.513 850.591, 587.289 847.049 L 591.500 843.099 584.025 835.549 C 579.914 831.397, 576.314 828.008, 576.025 828.017 C 575.736 828.026, 574.021 828.981, 572.213 830.139 M 639.449 904.751 C 991.421 904.889, 1279.736 904.664, 1280.149 904.251 C 1280.562 903.838, 992.585 903.725, 640.200 904 L -0.500 904.500 639.449 904.751" stroke="none" fill="#a56b45" fill-rule="evenodd"/><path d="M -0 452.001 L -0 904.002 640.250 903.751 L 1280.500 903.500 1280.751 451.750 L 1281.002 0 640.501 0 L 0 0 -0 452.001 M 0.496 452.500 C 0.496 701.100, 0.610 802.651, 0.750 678.168 C 0.890 553.686, 0.890 350.286, 0.750 226.168 C 0.610 102.051, 0.496 203.900, 0.496 452.500 M 749.500 48.236 C 744.509 50.030, 740.871 52.654, 704 81.054 C 666.216 110.157, 648.324 124.391, 633 137.537 C 627.775 142.020, 613.375 153.943, 601 164.034 C 575.359 184.943, 509.559 239.705, 488.139 257.964 C 476.267 268.084, 473.558 269.971, 472.515 268.853 C 471.271 267.521, 443.283 230.946, 425.565 207.500 C 409.551 186.309, 397.100 169.176, 392.520 162.031 C 383.684 148.246, 376.807 142.814, 368.058 142.708 C 359.318 142.602, 351.643 147.856, 342 160.547 C 339.525 163.804, 325.791 181.551, 311.480 199.984 C 297.169 218.418, 279.622 241.150, 272.487 250.500 C 265.352 259.850, 253.226 275.150, 245.540 284.500 C 220.677 314.747, 213.764 326.751, 210.947 344.570 C 210.235 349.074, 209.656 387.175, 209.293 453.417 C 208.757 551.249, 208.808 555.387, 210.559 556.667 C 213.084 558.513, 216.399 558.333, 218.219 556.250 C 219.560 554.715, 219.821 542.176, 220.345 454 C 220.701 393.998, 221.353 350.793, 221.962 346.782 C 224.185 332.147, 232.607 317.656, 253.507 292.500 C 259.905 284.800, 270.823 271.075, 277.769 262 C 284.715 252.925, 299.668 233.575, 310.996 219 C 322.325 204.425, 335.806 186.875, 340.956 180 C 358.140 157.056, 361.327 154, 368.068 154 C 372.211 154, 376.500 158.551, 388.034 175.186 C 399.328 191.474, 451.754 261.113, 462.702 274.369 L 465.071 277.238 455.654 286.943 C 449.443 293.344, 446.003 297.708, 445.553 299.760 C 443.381 309.647, 442.429 361.553, 442.687 456 C 442.878 526.159, 443.652 547.817, 446.114 551.878 C 449.981 558.261, 462.395 560.505, 489 559.630 C 509.588 558.952, 513.654 558.174, 518.303 554.021 L 521.500 551.166 521.782 505.333 C 521.937 480.125, 521.642 433.400, 521.126 401.500 C 520.243 346.889, 520.064 343.070, 518.062 336.148 C 514.427 323.577, 510.704 317.539, 492.399 294.522 C 482.515 282.095, 480.993 279.714, 482.087 278.396 C 482.793 277.545, 492.399 269.181, 503.435 259.809 C 514.471 250.437, 524.625 241.796, 526 240.607 C 527.375 239.417, 539.075 229.702, 552 219.017 C 596.506 182.223, 609.473 171.467, 622.967 160.148 C 649.755 137.678, 673.208 118.868, 701.108 97.476 C 716.723 85.502, 732.772 72.960, 736.771 69.603 C 746.228 61.665, 753.084 58, 758.480 58 C 764.223 58, 764.929 58.494, 823.341 103.464 C 827.653 106.784, 835.144 112.425, 839.987 116 C 850.644 123.866, 876.914 143.595, 879 145.299 C 879.825 145.973, 888.150 152.344, 897.500 159.458 C 918.515 175.445, 960.527 209.251, 964 212.967 C 964.275 213.261, 967.875 216.426, 972 220 C 999.635 243.942, 1048.362 291.056, 1053.467 298.772 C 1055.837 302.353, 1056.029 303.687, 1056.953 323.031 C 1057.490 334.289, 1057.979 389.164, 1058.039 444.975 L 1058.147 546.450 1055.824 547.070 C 1053.404 547.714, 911.119 546.504, 860.407 545.408 L 831.314 544.779 830.596 467.139 C 829.818 382.959, 829.252 368.322, 826.575 363.145 C 823.800 357.778, 821.340 357.326, 791 356.605 C 775.875 356.245, 753.150 355.483, 740.500 354.911 C 724.597 354.191, 713.258 354.191, 703.753 354.908 C 688.855 356.032, 684.551 357.420, 682.957 361.613 C 682.373 363.149, 682 399.595, 682 455.097 C 682 555.338, 681.745 551.227, 688.171 554.629 C 691.268 556.269, 695.986 556.371, 755.902 556.098 L 820.304 555.804 819.755 585.004 C 819.232 612.750, 819.299 614.299, 821.102 616.102 C 823.371 618.371, 825.785 618.477, 828.500 616.426 C 830.399 614.992, 830.525 613.433, 831 585.708 L 831.500 556.500 848 556.772 C 857.075 556.921, 908.445 557.528, 962.156 558.121 C 1068.514 559.295, 1063.086 559.525, 1067.410 553.670 L 1069.500 550.841 1069.277 442.670 C 1069.051 333.237, 1068.288 304.018, 1065.478 297.294 C 1063.499 292.557, 1057.655 285.805, 1041.601 269.705 C 1024.124 252.179, 1010.312 239.061, 993.972 224.471 C 955.059 189.724, 937.207 175.431, 858.500 116.006 C 845.850 106.455, 831.900 95.886, 827.500 92.518 C 803.123 73.864, 789.745 63.489, 783.500 58.398 C 773.714 50.419, 766.119 46.980, 758.500 47.080 C 755.200 47.123, 751.150 47.643, 749.500 48.236 M 464.058 294.609 L 456.094 302.500 455.047 325.903 C 453.942 350.602, 453.812 506.297, 454.876 530.999 L 455.500 545.497 459.500 546.955 C 462.565 548.073, 468.271 548.384, 483.911 548.288 C 495.138 548.219, 505.825 547.880, 507.661 547.536 L 511 546.909 510.987 477.705 C 510.973 399.467, 509.730 350.960, 507.493 341.311 C 504.822 329.797, 500.013 321.960, 480.672 297.609 L 472.022 286.717 464.058 294.609 M 695.245 366.955 L 692.989 367.940 693.245 456.220 L 693.500 544.500 756.750 544.757 L 820 545.015 819.993 505.757 C 819.985 454.415, 818.176 372.198, 817.007 370.013 C 816.189 368.484, 813.214 368.226, 789.794 367.648 C 732.666 366.241, 697.473 365.983, 695.245 366.955 M 820.500 662.083 C 806.263 663.722, 795.410 670.691, 789.469 682.007 C 787.174 686.379, 786.242 701.174, 787.939 706.314 C 789.333 710.538, 796.255 718.042, 801.066 720.544 C 802.955 721.527, 810.025 724.237, 816.777 726.567 C 831.244 731.560, 835.470 734.363, 836.457 739.621 C 837.728 746.395, 832.138 751.035, 821.775 751.809 C 815.076 752.310, 809.495 750.450, 803.577 745.746 L 799.654 742.628 791.401 751.564 L 783.147 760.500 785.160 762.657 C 788.365 766.090, 798.111 770.821, 805.603 772.581 C 814.023 774.559, 830.258 774.044, 837 771.586 C 847.685 767.690, 856.627 758.787, 859.124 749.559 C 859.728 747.327, 860.245 742.279, 860.273 738.342 C 860.315 732.502, 859.830 730.200, 857.639 725.842 C 853.593 717.793, 847.835 713.778, 834.041 709.389 C 818.454 704.429, 813.369 701.648, 811.934 697.299 C 810.392 692.626, 812.071 688.890, 816.945 686.151 C 823.742 682.331, 836.666 683.673, 842.316 688.786 C 844.128 690.426, 844.523 690.150, 852.067 681.997 C 856.392 677.324, 859.946 673.153, 859.965 672.728 C 860.031 671.284, 850.740 666.076, 844.609 664.120 C 837.457 661.838, 828.903 661.116, 820.500 662.083 M 209 717.411 L 209 770.867 211.750 771.184 C 213.262 771.358, 218.662 771.357, 223.750 771.181 L 233 770.863 233.098 730.681 L 233.196 690.500 246.348 730.196 C 253.582 752.029, 259.812 770.191, 260.193 770.555 C 260.905 771.237, 277.874 771.529, 278.378 770.868 C 278.621 770.549, 292.739 729.391, 302.315 701.084 L 305.500 691.668 305.761 731.334 C 306.005 768.212, 306.145 771.005, 307.761 771.073 C 308.718 771.114, 314.112 771.226, 319.749 771.323 L 329.997 771.500 329.999 717.750 L 330 664 312.250 664.006 L 294.500 664.012 282.611 697.756 C 276.072 716.315, 270.404 731.859, 270.014 732.297 C 269.364 733.029, 264.776 720.927, 254.926 692.500 C 252.829 686.450, 249.758 677.675, 248.100 673 L 245.086 664.500 227.043 664.227 L 209 663.955 209 717.411 M 352 717.434 L 352 770.867 361.884 771.184 C 367.320 771.358, 372.495 771.355, 373.384 771.177 C 374.848 770.884, 375 765.827, 375 717.427 L 375 664 363.500 664 L 352 664 352 717.434 M 397.989 665.750 C 397.983 666.712, 397.965 690.806, 397.948 719.292 L 397.917 771.084 409.459 771.292 L 421.001 771.500 421.001 746.750 C 421 733.138, 421.358 722, 421.795 722 C 422.231 722, 424.234 724.138, 426.245 726.750 C 428.256 729.362, 430.936 732.627, 432.201 734.005 C 433.465 735.383, 441.171 744.270, 449.323 753.755 L 464.147 771 476.323 771.158 C 483.021 771.245, 490.413 771.379, 492.750 771.455 C 495.087 771.532, 497 771.314, 497 770.971 C 497 770.628, 491.481 764.307, 484.735 756.924 C 461.911 731.943, 447 714.971, 447 713.973 C 447 713.426, 457.012 702.582, 469.250 689.874 C 481.488 677.167, 491.860 666.147, 492.300 665.385 C 492.966 664.231, 490.629 664.003, 478.300 664.015 C 470.160 664.024, 463.037 664.361, 462.472 664.765 C 461.907 665.169, 454.260 673.150, 445.478 682.500 C 436.697 691.850, 427.603 701.525, 425.268 704 L 421.024 708.500 421.012 686.250 L 421 664 409.500 664 C 399.218 664, 397.999 664.185, 397.989 665.750 M 507.241 717.669 L 507.500 771.338 518.749 771.419 L 529.999 771.500 529.999 746.667 C 530 732.591, 530.385 721.978, 530.889 722.167 C 531.378 722.350, 541.081 733.413, 552.450 746.750 L 573.122 771 589.735 771 L 606.349 771 604.369 768.750 C 596.930 760.293, 573.886 734.712, 565.766 725.897 C 560.395 720.066, 556 714.813, 556 714.225 C 556 713.636, 566.237 702.497, 578.750 689.470 C 591.263 676.444, 601.650 665.384, 601.833 664.893 C 602.020 664.393, 595.400 664, 586.806 664 C 572.108 664, 571.362 664.097, 569.535 666.250 C 568.485 667.487, 559.273 677.441, 549.063 688.369 L 530.500 708.238 530.231 686.119 L 529.962 664 518.472 664 L 506.983 664 507.241 717.669 M 616 717.500 L 616 771 653.500 771 L 691 771 691 760.500 L 691 750 665.607 750 C 646.176 750, 640.119 749.707, 639.807 748.750 C 639.584 748.063, 639.579 743.112, 639.797 737.750 L 640.193 728 663.097 728 L 686 728 686 717 L 686 706 663.069 706 L 640.137 706 639.819 696.412 C 639.643 691.139, 639.688 686.639, 639.917 686.412 C 640.146 686.186, 651.058 686, 664.167 686 L 688 686 688 675 L 688 664 652 664 L 616 664 616 717.500 M 711 717.500 L 711 771 742.918 771 C 760.473 771, 775.548 771.273, 776.418 771.607 C 777.802 772.138, 778 770.826, 778 761.127 L 778 750.040 756.750 749.770 L 735.500 749.500 735.239 706.750 L 734.979 664 722.989 664 L 711 664 711 717.500 M 879 717.464 L 879 770.953 916.500 771.226 L 954.001 771.500 954 760.750 L 954 750 928.500 750 L 903 750 903 739 L 903 728 926 728 L 949 728 949 717 L 949 706 926 706 L 903 706 903 696 L 903 686 927.534 686 L 952.068 686 951.784 675.250 L 951.500 664.500 915.250 664.238 L 879 663.975 879 717.464 M 973 717.475 L 973 771 984.988 771 L 996.976 771 997.238 733.502 L 997.500 696.004 1006.985 711.752 C 1012.201 720.413, 1018.340 730.425, 1020.627 734 C 1022.914 737.575, 1028.931 747.339, 1033.997 755.697 C 1039.063 764.055, 1043.897 771.030, 1044.739 771.197 C 1045.581 771.364, 1052.734 771.364, 1060.635 771.199 L 1075 770.897 1075 717.449 L 1075 664 1063.012 664 L 1051.024 664 1050.762 701.039 L 1050.500 738.077 1044 727.454 C 1040.425 721.611, 1030.271 705.056, 1021.436 690.665 L 1005.371 664.500 989.186 664.225 L 973 663.950 973 717.475 M 273.703 798.383 C 260.530 803.287, 252.709 816.363, 254.391 830.672 C 255.020 836.019, 258.877 845.188, 261.068 846.542 C 261.773 846.978, 260.982 848.456, 258.882 850.622 C 255.854 853.745, 255.719 854.148, 257.201 855.630 C 258.683 857.112, 259.042 856.984, 261.670 854.043 L 264.527 850.845 269.912 853.550 C 276.981 857.100, 285.619 857.834, 293.474 855.550 C 301.753 853.144, 310.144 844.753, 312.550 836.474 C 315.303 827.007, 313.811 817.196, 308.340 808.778 C 306.594 806.091, 306.608 806.018, 309.486 803.015 C 312.163 800.220, 312.270 799.841, 310.794 798.365 C 309.318 796.890, 308.955 797.019, 306.339 799.946 L 303.491 803.134 298.560 800.378 C 294.550 798.136, 292.125 797.561, 285.565 797.296 C 280.320 797.084, 276.172 797.464, 273.703 798.383 M 573.500 797.954 C 572.400 798.409, 570.375 799.992, 569 801.471 C 565.338 805.411, 565.432 814.032, 569.199 819.724 L 571.897 823.802 567.910 826.441 C 562.527 830.003, 560.008 834.392, 560.004 840.216 C 559.997 849.320, 565.608 855.751, 574.427 856.745 C 581.579 857.551, 585.752 856.270, 590.632 851.771 L 595.085 847.667 599.330 851.833 C 602.772 855.211, 604.278 856, 607.288 856 C 611.012 856, 612.085 854.813, 609.750 853.277 C 609.063 852.825, 606.310 850.147, 603.634 847.326 L 598.768 842.196 603.884 833.504 C 606.698 828.723, 609 824.601, 609 824.343 C 609 824.084, 607.541 824.014, 605.758 824.187 C 602.913 824.462, 602.033 825.339, 598.589 831.331 L 594.662 838.163 588.312 831.493 L 581.963 824.823 586.054 822.075 C 593.530 817.054, 596.012 809.791, 592.544 803.085 C 589.960 798.088, 579.797 795.349, 573.500 797.954 M 755.994 797.934 C 748.474 800.222, 741.496 806.377, 737.827 813.958 C 734.625 820.573, 734.662 832.546, 737.905 839.779 C 741.121 846.953, 748.538 853.519, 755.814 855.634 C 762.909 857.697, 773.311 857.005, 781.250 853.941 L 787 851.722 787 837.361 L 787 823 776.934 823 L 766.867 823 767.184 825.750 C 767.490 828.413, 767.714 828.509, 774.250 828.796 L 781 829.091 781 838.465 L 781 847.839 775.924 849.525 C 772.410 850.692, 768.642 851.090, 763.674 850.818 C 754.773 850.331, 749.407 847.250, 745.305 840.272 C 742.821 836.046, 742.500 834.520, 742.500 826.926 C 742.500 819.129, 742.774 817.908, 745.526 813.452 C 750.022 806.174, 756.320 802.623, 764.832 802.565 C 771.225 802.522, 773.823 803.304, 779.739 807.050 C 781.750 808.323, 782.194 808.250, 784.114 806.331 L 786.250 804.194 782.293 801.575 C 780.117 800.135, 776.801 798.517, 774.925 797.978 C 770.976 796.846, 759.658 796.820, 755.994 797.934 M 205 801 L 205 804 214.500 804 L 224 804 224 830 L 224 856 227 856 L 230 856 230 830 L 230 804 239.500 804 L 249 804 249 801 L 249 798 227 798 L 205 798 205 801 M 325.667 798.667 C 325.300 799.033, 325 812.083, 325 827.667 L 325 856 328 856 L 331 856 331.115 833.750 C 331.178 821.513, 331.140 810.600, 331.029 809.500 C 330.513 804.383, 334.195 812.326, 349.015 848.301 C 351.301 853.850, 352.680 856.015, 353.792 855.801 C 354.788 855.609, 358.898 847.032, 365.141 832.120 C 370.523 819.260, 375.169 808.498, 375.464 808.203 C 375.759 807.908, 376 818.542, 376 831.833 L 376 856 379 856 L 382 856 382 826.945 L 382 797.890 377.414 798.195 L 372.829 798.500 363.498 820.833 C 358.365 833.117, 353.999 843.335, 353.793 843.540 C 353.436 843.897, 338.271 807.991, 335.932 801.250 C 334.899 798.272, 334.449 798, 330.569 798 C 328.239 798, 326.033 798.300, 325.667 798.667 M 397.667 798.667 C 397.300 799.033, 397 812.083, 397 827.667 L 397 856 400 856 L 403 856 403 842.500 L 403 829 407.877 829 L 412.755 829 420.627 842.250 C 427.933 854.545, 428.734 855.523, 431.750 855.813 C 433.572 855.989, 435 855.660, 435 855.065 C 435 854.482, 431.843 848.847, 427.985 842.545 C 419.714 829.033, 419.243 828, 421.359 828 C 424.733 828, 429.870 824.576, 431.891 820.981 C 437.109 811.696, 432.337 801.310, 421.816 799.054 C 416.402 797.893, 398.724 797.609, 397.667 798.667 M 445.667 798.667 C 445.300 799.033, 445 812.083, 445 827.667 L 445 856 463.500 856 L 482 856 482 853 L 482 850 466.500 850 L 451 850 451 839.500 L 451 829 465 829 L 479 829 479 826 L 479 823 465 823 L 451 823 451 813.500 L 451 804 466 804 L 481 804 481 801 L 481 798 463.667 798 C 454.133 798, 446.033 798.300, 445.667 798.667 M 493 826.882 L 493 856 496 856 L 499 856 499 842.500 L 499 829 503.797 829 L 508.594 829 516.518 842.500 C 524.136 855.477, 524.570 856, 527.721 856 C 529.525 856, 531 855.649, 531 855.219 C 531 854.790, 527.625 848.930, 523.500 842.197 C 519.375 835.465, 516 829.573, 516 829.103 C 516 828.634, 517.287 827.993, 518.860 827.678 C 528.416 825.767, 533.003 812.358, 526.799 804.471 C 523.064 799.724, 519.461 798.648, 505.750 798.190 L 493 797.764 493 826.882 M 636 801 L 636 804 645.500 804 L 655 804 655 830 L 655 856 658 856 L 661 856 661 830 L 661 804 670.500 804 L 680 804 680 801 L 680 798 658 798 L 636 798 636 801 M 700.666 798.750 C 700.241 799.454, 677.333 852.051, 676.276 854.750 C 675.941 855.606, 676.894 856, 679.297 856 C 682.710 856, 682.892 855.799, 685.833 848.750 L 688.859 841.500 703.679 841.242 L 718.500 840.984 721.533 848.242 C 724.367 855.026, 724.784 855.521, 727.918 855.823 C 730.755 856.097, 731.195 855.866, 730.772 854.323 C 730.497 853.321, 724.944 840.237, 718.432 825.250 C 707.072 799.106, 706.480 798, 703.855 798 C 702.349 798, 700.914 798.337, 700.666 798.750 M 795.184 800.750 L 795.500 803.500 804.733 803.787 L 813.966 804.075 814.233 829.787 L 814.500 855.500 817.119 855.804 C 819.101 856.034, 819.876 855.582, 820.302 853.951 C 820.613 852.765, 820.784 841.041, 820.683 827.897 L 820.500 804 830.250 804 L 840 804 840 801 L 840 798 817.434 798 L 794.867 798 795.184 800.750 M 848.235 826.750 L 848.500 855.500 866.750 855.773 L 885 856.045 885 853.023 L 885 850 869.500 850 L 854 850 854 839.500 L 854 829 868 829 L 882 829 882 826 L 882 823 868 823 L 854 823 854 813.500 L 854 804 869 804 L 884 804 884 801 L 884 798 865.985 798 L 847.969 798 848.235 826.750 M 896 827 L 896 856 899 856 L 902 856 902 841.500 C 902 833.378, 902.403 827, 902.917 827 C 903.421 827, 910.022 833.525, 917.585 841.500 C 930.627 855.251, 931.535 856, 935.169 856 C 937.276 856, 939 855.740, 939 855.422 C 939 855.105, 932.587 848.126, 924.750 839.913 C 916.913 831.701, 910.420 824.649, 910.323 824.241 C 910.226 823.834, 913.601 820.448, 917.823 816.717 C 922.045 812.987, 928.425 807.264, 932 804.001 L 938.500 798.067 934.235 798.033 C 930.168 798.002, 929.376 798.545, 917.235 809.690 C 910.231 816.119, 904.350 821.744, 904.167 822.190 C 903.983 822.635, 903.421 823, 902.917 823 C 902.410 823, 902 817.409, 902 810.500 L 902 798 899 798 L 896 798 896 827 M 947 827 L 947 856 949.982 856 L 952.964 856 953.232 831.750 L 953.500 807.500 963.500 821.705 C 969 829.518, 976.648 840.451, 980.496 846.001 C 987.295 855.807, 987.591 856.083, 990.996 855.796 L 994.500 855.500 994.500 827 L 994.500 798.500 991.750 798.184 L 989 797.867 989 821.517 C 989 835.962, 988.632 845.037, 988.053 844.833 C 987.103 844.499, 984.420 840.800, 965 813.052 C 954.659 798.277, 954.443 798.048, 950.750 798.024 L 947 798 947 827 M 1010 827 L 1010 856 1013 856 L 1016 856 1016 827 L 1016 798 1013 798 L 1010 798 1010 827 M 1031.667 798.667 C 1031.300 799.033, 1031 812.083, 1031 827.667 L 1031 856 1034 856 L 1037 856 1037 841.500 C 1037 833.419, 1037.404 827, 1037.913 827 C 1038.415 827, 1045.018 833.525, 1052.585 841.500 C 1065.628 855.245, 1066.544 856, 1070.172 856 C 1072.278 856, 1074 855.739, 1074 855.420 C 1074 855.102, 1067.588 848.110, 1059.750 839.884 C 1051.912 831.658, 1045.427 824.606, 1045.337 824.214 C 1045.248 823.821, 1051.519 817.875, 1059.274 811 L 1073.373 798.500 1069.164 798.191 C 1065.320 797.910, 1064.502 798.308, 1059.727 802.794 C 1056.852 805.494, 1050.675 811.194, 1046 815.458 L 1037.500 823.212 1037.220 810.606 C 1036.945 798.194, 1036.905 798, 1034.637 798 C 1033.370 798, 1032.033 798.300, 1031.667 798.667 M 276.591 803.517 C 266.695 807.285, 261 815.764, 261 826.728 C 261 832.637, 262.657 838.677, 265.078 841.594 C 265.856 842.532, 269.412 839.326, 279.412 828.671 C 286.726 820.877, 294.152 812.835, 295.914 810.801 L 299.118 807.101 295.133 805.068 C 289.742 802.317, 281.542 801.632, 276.591 803.517 M 575.182 804.500 C 571.653 807.470, 571.150 810.455, 573.434 814.872 C 576.577 820.950, 579.375 821.195, 584.821 815.871 C 590.077 810.732, 588.317 803.742, 581.432 802.414 C 579.030 801.951, 577.673 802.404, 575.182 804.500 M 403 813.237 C 403 818.423, 403.188 822.855, 403.418 823.084 C 403.648 823.314, 407.908 823.257, 412.885 822.956 C 420.607 822.491, 422.305 822.062, 424.467 820.031 C 427.878 816.827, 427.931 811.195, 424.588 807.306 C 422.306 804.652, 421.656 804.481, 412.588 804.153 L 403 803.807 403 813.237 M 499 813.333 C 499 818.467, 499.188 822.855, 499.418 823.084 C 499.648 823.314, 503.983 823.252, 509.052 822.946 C 517.534 822.435, 518.456 822.171, 520.634 819.639 C 521.989 818.064, 523 815.602, 523 813.878 C 523 806.716, 518.615 804, 507.050 804 L 499 804 499 813.333 M 698.231 818.724 C 695.379 825.751, 692.762 832.288, 692.416 833.250 C 691.839 834.852, 692.765 835, 703.393 835 C 710.767 835, 715 834.620, 715 833.959 C 715 832.858, 706.607 812.093, 704.599 808.224 C 703.517 806.142, 702.978 807.032, 698.231 818.724 M 286 827.921 C 277.475 837.154, 270.500 845.337, 270.500 846.104 C 270.500 849.025, 277.047 851.120, 285.169 850.797 C 291.790 850.534, 293.431 850.082, 297.169 847.490 C 299.990 845.535, 302.486 842.572, 304.328 838.994 C 306.898 834.001, 307.117 832.771, 306.729 825.500 C 306.440 820.068, 305.692 816.459, 304.401 814.256 C 303.356 812.472, 302.275 811.040, 302 811.073 C 301.725 811.106, 294.525 818.687, 286 827.921 M 572.213 830.139 C 565.231 834.609, 564.007 842.207, 569.400 847.600 C 572.384 850.584, 573.428 851, 577.939 851 C 582.546 851, 583.513 850.591, 587.289 847.049 L 591.500 843.099 584.025 835.549 C 579.914 831.397, 576.314 828.008, 576.025 828.017 C 575.736 828.026, 574.021 828.981, 572.213 830.139" stroke="none" fill="#040404" fill-rule="evenodd"/></svg>