<?xml version="1.0" encoding="utf-8"?>
<!-- Generator: Adobe Illustrator 26.2.1, SVG Export Plug-In . SVG Version: 6.00 Build 0)  -->
<svg version="1.1" id="Layer_1" xmlns="http://www.w3.org/2000/svg" xmlns:xlink="http://www.w3.org/1999/xlink" x="0px" y="0px"
	 viewBox="0 0 2672.1 947.7" style="enable-background:new 0 0 2672.1 947.7;" xml:space="preserve">
<style type="text/css">
	.st0{fill:#AB8D69;}
</style>
<polygon class="st0" points="930.4,0 724.3,149.4 518.2,0 0,375.6 0,669.6 149.5,669.6 149.5,451.8 518.2,184.3 597.1,241.5 
	412.1,375.6 412.1,669.6 561.6,669.6 561.6,451.8 724.3,333.8 851.5,241.5 930.4,184.3 1184.6,184.3 "/>
<g>
	<path class="st0" d="M885.6,354.8c43.4,0,65.6,11.3,80.2,23.6c24.1,20.3,31.2,47.2,31.2,70.8c0,30.7-12.3,57.6-36.8,74.1
		c-8,5.7-19.4,10.9-34.5,13.7l98.2,132.6h-76.5l-84-126.5h-7.5v126.5h-61.4V354.8H885.6z M855.9,499.7h17.5
		c11.8,0,60.4-1.4,60.4-47.7c0-46.7-48.2-47.2-59.5-47.2h-18.4V499.7z"/>
	<path class="st0" d="M1107.9,354.8h44.4l83.5,200.1l87.3-200.1h44.4l52.9,314.8h-62.3l-28.3-194l-84.5,194h-20.8l-80.7-194
		l-32.1,194h-62.3L1107.9,354.8z"/>
</g>
<g>
	<path class="st0" d="M59.7,804.5v133.6H35.8V804.5H0V782h95.5v22.5H59.7z"/>
	<path class="st0" d="M120.5,910c-12.2-16.6-16.1-34.4-16.1-49.8c0-45.9,34.6-80.9,81.2-80.9c25.7,0,41.4,9.4,50.1,16.1l21.8-22
		l13.3,13.3l-21.8,22c5.9,7,17.8,23.6,17.8,51.5c0,45.9-34.4,80.9-81.2,80.9c-25.3,0-41.6-9.1-51.9-17.5l-21.8,21.5l-13.3-13.3
		L120.5,910z M218.5,811c-6.3-4.4-16.6-9.8-33-9.8c-33.5,0-57.3,24.3-57.3,59c0,17.5,4.9,27.6,9.4,33.9L218.5,811z M150.4,907.7
		c6.3,4.9,17.1,11.5,35.1,11.5c33.5,0,57.3-24.3,57.3-59c0-19-6.1-29.7-10.8-36.3L150.4,907.7z"/>
	<path class="st0" d="M287.3,938.1L320,770.3l54.3,121.2l54.7-121.2l29.5,167.7h-24.3l-15.9-94l-45.4,101.3L328,843.8l-16.4,94.3
		H287.3z"/>
	<path class="st0" d="M519.1,782c18.9,0,31.1,2.3,41.2,9.1c17.1,11.5,18.5,29.9,18.5,36.7c0,22.5-13.8,38.8-34.6,43.5l48.7,66.7
		h-28.8l-44.7-63.9h-4.2v63.9h-23.9V782H519.1z M515.2,853.6h7.5c6.5,0,33.2-0.7,33.2-25.5c0-22-20.8-24.1-32.5-24.1h-8.2V853.6z"/>
	<path class="st0" d="M702.3,804.5h-62.2V844h60.4v22.5h-60.4v49.1h62.2v22.5h-86.1V782h86.1V804.5z"/>
	<path class="st0" d="M761,782c18.9,0,31.1,2.3,41.2,9.1c17.1,11.5,18.5,29.9,18.5,36.7c0,22.5-13.8,38.8-34.6,43.5l48.7,66.7H806
		l-44.7-63.9h-4.2v63.9h-23.9V782H761z M757.1,853.6h7.5c6.5,0,33.2-0.7,33.2-25.5c0-22-20.8-24.1-32.5-24.1h-8.2V853.6z"/>
	<path class="st0" d="M1034.7,880.8l-18.5,21.3l28.8,36h-29l-15.4-19.2c-3.5,3.7-8.2,8-13.1,11.5c-9.6,6.8-19.4,10.8-34.2,10.8
		c-29.2,0-46.8-19.4-46.8-44.7c0-20.6,10.5-31.4,22.5-40.2c4.2-3,11-7.7,12.4-8.7c-5.4-5.4-15.4-17.3-15.4-32.3
		c0-17.8,11.2-36,37-36c24.8,0,37.4,17.1,37.4,33.7c0,10.1-4,16.6-6.8,20.4c-3.7,4.9-9.1,10.3-19.4,18l27.6,33.7l17.8-20.1
		L1034.7,880.8z M955.4,864.6c-5.1,2.8-12.6,8-17.1,12.9c-6.6,7-8.4,14.3-8.4,19.9c0,12.6,9.6,23.6,24.3,23.6
		c6.6,0,11.9-2.3,17.5-6.1c4.9-3.5,11.7-10.1,14.5-12.9L955.4,864.6z M969,828.3c5.6-4,9.4-9.6,9.4-15.4c0-6.8-4.4-14-15.4-14
		c-9.6,0-15,5.9-15,13.8c0,5.4,2.8,10.5,5.4,13.6l7,8.4L969,828.3z"/>
	<path class="st0" d="M1161.6,804.5v133.6h-23.9V804.5h-35.8V782h95.5v22.5H1161.6z"/>
	<path class="st0" d="M1300.7,900.4h-66.7l-17.1,37.7h-25.7l77.7-165.2l73.9,165.2h-25.7L1300.7,900.4z M1291.2,877.9l-23.2-52.9
		l-24.1,52.9H1291.2z"/>
	<path class="st0" d="M1439.7,856.9h64.3v1.2c0,26.7-8,48.4-23.2,63.2c-16.2,15.7-35.3,19.9-53.1,19.9c-22.7,0-38.8-6.5-53.1-21.3
		c-15.2-15.7-23.2-36.5-23.2-59c0-24.3,9.8-45.4,22.7-58.3c13.3-13.6,34.6-23.4,58.7-23.4c14,0,28.5,3,40.7,9.8
		c12.9,7.2,20.8,16.4,25.3,23.4l-19,13.3c-4.7-6.5-11.7-13.6-19.2-17.8c-8.7-5.1-18-6.8-27.6-6.8c-20.4,0-33.5,8.4-41.2,16.1
		c-10.3,10.3-16.6,26.9-16.6,43.8c0,15.7,5.8,31.4,16.1,42.3c10.8,11.5,24.1,15.7,39.1,15.7c13.6,0,24.8-4,34.9-13.8
		c8.7-8.4,12.2-17.5,13.1-26.4h-38.8V856.9z"/>
	<path class="st0" d="M1577.3,804.5v133.6h-23.9V804.5h-35.8V782h95.5v22.5H1577.3z"/>
	<path class="st0" d="M1720.2,804.5H1658V844h60.4v22.5H1658v49.1h62.2v22.5h-86.1V782h86.1V804.5z"/>
	<path class="st0" d="M1774.9,844.3l60.4-62.2h31.4l-70.4,70.7l70.9,85.4h-31.8l-55.7-69.3l-4.7,4.7v64.6h-23.9V782h23.9V844.3z"/>
	<path class="st0" d="M1888.2,938.1V771.5l113.2,118.6V782h23.9v165.6L1912,829.1v109H1888.2z"/>
	<path class="st0" d="M2086.6,782v156h-23.9V782H2086.6z"/>
	<path class="st0" d="M2147.9,844.3l60.4-62.2h31.4l-70.4,70.7l70.9,85.4h-31.8l-55.7-69.3l-4.7,4.7v64.6H2124V782h23.9V844.3z"/>
	<path class="st0" d="M2407.3,900.4h-66.7l-17.1,37.7h-25.7l77.7-165.2l73.9,165.2h-25.7L2407.3,900.4z M2397.7,877.9l-23.2-52.9
		l-24.1,52.9H2397.7z"/>
	<path class="st0" d="M2503.4,782c9.6,0,22.9,0.9,34.2,8.4c13.1,8.7,19.4,23.6,19.4,37.9c0,9.1-2.3,23.2-15.2,34.2
		c-12.4,10.5-26.7,12.2-38.1,12.2h-10.8v63.4h-23.9V782H2503.4z M2492.9,852.7h10.8c20.6,0,30.4-10.1,30.4-24.6
		c0-8.7-3.5-24.1-30.6-24.1h-10.5V852.7z"/>
	<path class="st0" d="M2648.7,816.7c-1.4-3.5-3.5-6.8-7-9.8c-4.9-4-10.1-5.6-16.8-5.6c-14.5,0-22,8.7-22,18.7
		c0,4.7,1.6,12.9,16.8,19l15.7,6.3c28.8,11.7,36.7,28.1,36.7,45.9c0,29.7-21.1,50.1-50.3,50.1c-18,0-28.8-6.8-36.7-15.7
		c-8.4-9.4-12.2-19.6-13.1-30.4l23.6-5.1c0,7.7,2.8,15,6.6,19.9c4.4,5.6,11,9.4,20.4,9.4c14.5,0,25.7-10.5,25.7-26.2
		c0-15.9-12.2-22.5-22.5-26.7l-15-6.3c-12.9-5.4-31.8-16.1-31.8-39.5c0-21.1,16.4-41.2,45.6-41.2c16.8,0,26.4,6.3,31.3,10.5
		c4.2,3.7,8.7,9.1,11.9,15.7L2648.7,816.7z"/>
</g>
</svg>
