<?xml version="1.0" encoding="utf-8"?>
<!-- Generator: Adobe Illustrator 24.2.1, SVG Export Plug-In . SVG Version: 6.00 Build 0)  -->
<svg version="1.1" id="Layer_1" xmlns="http://www.w3.org/2000/svg" xmlns:xlink="http://www.w3.org/1999/xlink" x="0px" y="0px"
	 viewBox="0 0 29.2 29.2" style="enable-background:new 0 0 29.2 29.2;" xml:space="preserve">
<style type="text/css">
	.st0{fill:#FFFFFF;}
</style>
<g>
	<path class="st0" d="M11.8,6.8c-0.4-4.4-5-6.6-5.2-6.6C6.5,0,6.3,0,6.1,0C0.8,0.9,0,4,0,4.1c0,0.2,0,0.4,0,0.5
		C6.3,24.2,19.4,27.8,23.7,29c0.3,0.1,0.6,0.2,0.8,0.2c0.1,0,0.2,0,0.3,0c0.1,0,0.3,0,0.4-0.1s3.2-1.5,4-6.3c0-0.2,0-0.4-0.1-0.6
		c-0.1-0.1-1.7-3.2-6.2-4.3c-0.3-0.1-0.6,0-0.9,0.2c-1.4,1.2-3.4,2.5-4.2,2.6c-5.7-2.8-8.9-8.1-9-9.1C8.7,11,10,9,11.5,7.4
		C11.7,7.3,11.8,7,11.8,6.8z"/>
</g>
</svg>
