<?xml version="1.0" encoding="utf-8"?>
<!-- Generator: Adobe Illustrator 26.2.1, SVG Export Plug-In . SVG Version: 6.00 Build 0)  -->
<svg version="1.1" id="Layer_1" xmlns="http://www.w3.org/2000/svg" xmlns:xlink="http://www.w3.org/1999/xlink" x="0px" y="0px"
	 viewBox="0 0 360.2 228.9" style="enable-background:new 0 0 360.2 228.9;" xml:space="preserve">
<style type="text/css">
	.st0{fill:#FFFFFF;}
</style>
<g>
	<path class="st0" d="M0,0v228.9h360.2V0H0z M344.6,213.3c-14.5,0-314.4,0-329,0c0-13.9,0-183.8,0-197.7c14.5,0,314.4,0,329,0
		C344.6,29.5,344.6,199.4,344.6,213.3z"/>
	<polygon class="st0" points="205.6,196 142.8,110.8 199.8,34 144.3,34.1 115.2,73.3 86.3,34.2 86.3,34.2 30.5,34.2 87.2,110.9 
		23.8,196 79.5,196 114.9,148.4 150.1,196 	"/>
	<g>
		<path class="st0" d="M316.9,26.7c0-3.2,2.5-5.7,5.7-5.7c3.1,0,5.7,2.5,5.7,5.7c0,3.2-2.6,5.7-5.7,5.7
			C319.4,32.4,316.9,29.9,316.9,26.7z M327,26.7c0-2.5-2-4.4-4.4-4.4c-2.5,0-4.4,2-4.4,4.4c0,2.4,2,4.4,4.4,4.4
			C325,31.1,327,29.1,327,26.7z M325.4,29.8H324l-1.4-2.5h-1.1v2.5h-1.3v-6.2h3.1c1.4,0,2.4,0.2,2.4,1.9c0,1.1-0.6,1.6-1.7,1.7
			L325.4,29.8z M323.2,26.3c0.7,0,1.1-0.1,1.1-0.9c0-0.7-0.8-0.7-1.4-0.7h-1.5v1.7L323.2,26.3L323.2,26.3z"/>
	</g>
	<g>
		<g>
			<path class="st0" d="M292.3,140.5v-14.7c0-5.6,1.3-8.8,9.2-8.8c4.5,0,7.5,0.7,8.3,4.4h0.4c0.3-4.2,3.5-4.8,8-4.8
				c8.8,0,10,3.2,10,9.1v14.9L292.3,140.5L292.3,140.5z M306.7,133.1v-5.4c0-2.6-0.6-3.2-3.5-3.2c-2.2,0-3,0.3-3.1,2.3v6.3H306.7z
				 M320.4,133.1v-5.6c0-2.4-0.7-3.4-3.6-3.4c-3,0-3.4,0.8-3.4,3.3v5.8L320.4,133.1L320.4,133.1z"/>
			<polygon class="st0" points="315.6,98.6 328.2,98.6 328.2,106.1 315.6,106.1 292.3,116 292.3,107.4 306.1,102.4 306.1,102.2 
				292.3,97 292.3,88.4 			"/>
			<path class="st0" d="M303.5,70.9c-3.6,0.2-3.6,2.6-3.6,4.8c0,5.4,2.1,5.5,7.9,5.6h5.8c6.4,0,7-1.7,7-5.6c0-3.8-1.1-4.8-6.1-4.8
				V76h-6.6V63.3h6.3c12.1,0,14.3,2.4,14.3,12.4c0,8.8-1.9,13.3-13.5,13.3h-9.3c-11.9,0-13.6-5.1-13.6-13.3c0-7.2,0-12.4,11.4-12.4
				L303.5,70.9L303.5,70.9z"/>
		</g>
		<path class="st0" d="M303.1,41.8c-3.6,0.2-3.6,2.6-3.6,4.8c0,5.4,2.1,5.5,7.9,5.6h5.9c6.4,0,7-1.7,7-5.6c0-3.8-1.1-4.8-6.1-4.8V47
			h-6.7V34.2h6.3c12.1,0,14.3,2.4,14.3,12.4c0,8.8-1.9,13.3-13.5,13.3h-9.3c-11.9,0-13.6-5.1-13.6-13.3c0-7.2,0-12.4,11.4-12.4
			L303.1,41.8L303.1,41.8z"/>
	</g>
	<g>
		<polygon class="st0" points="263,152.3 263,34 212.3,34 212.3,37.3 222.5,37.3 222.5,39.3 212.3,39.3 212.3,43.6 217,43.6 
			217,45.6 212.3,45.6 212.3,49.9 217,49.9 217,51.9 212.3,51.9 212.3,56.3 217,56.3 217,58.3 212.3,58.3 212.3,62.6 217,62.6 
			217,64.6 212.3,64.6 212.3,68.9 222.5,68.9 222.5,70.9 212.3,70.9 212.3,75.2 217,75.2 217,77.2 212.3,77.2 212.3,81.6 217,81.6 
			217,83.6 212.3,83.6 212.3,87.9 217,87.9 217,89.9 212.3,89.9 212.3,94.2 217,94.2 217,96.2 212.3,96.2 212.3,100.6 222.5,100.6 
			222.5,102.6 212.3,102.6 212.3,106.9 217,106.9 217,108.9 212.3,108.9 212.3,113.2 217,113.2 217,115.2 212.3,115.2 212.3,119.6 
			217,119.6 217,121.6 212.3,121.6 212.3,125.9 217,125.9 217,127.9 212.3,127.9 212.3,132.2 222.5,132.2 222.5,134.2 212.3,134.2 
			212.3,138.6 217,138.6 217,140.6 212.3,140.6 212.3,144.9 217,144.9 217,146.9 212.3,146.9 212.3,151.2 217,151.2 217,153.2 
			212.3,153.2 212.3,157.6 217,157.6 217,159.6 212.3,159.6 212.3,163.9 222.5,163.9 222.5,165.9 212.3,165.9 212.3,170.2 
			217,170.2 217,172.2 212.3,172.2 212.3,176.5 217,176.5 217,178.5 212.3,178.5 212.3,182.9 217,182.9 217,184.9 212.3,184.9 
			212.3,189.2 217,189.2 217,191.2 212.3,191.2 212.3,196 217.1,196 217.1,191.2 219.1,191.2 219.1,196 223.4,196 223.4,191.2 
			225.4,191.2 225.4,196 229.7,196 229.7,191.2 231.7,191.2 231.7,196 236.1,196 236.1,191.2 238.1,191.2 238.1,196 242.4,196 
			242.4,185.8 244.4,185.8 244.4,196 248.7,196 248.7,191.2 250.7,191.2 250.7,196 255.1,196 255.1,191.2 257.1,191.2 257.1,196 
			261.4,196 261.4,191.2 263.4,191.2 263.4,196 267.7,196 267.7,191.2 269.7,191.2 269.7,196 274,196 274,185.8 276,185.8 276,196 
			280.4,196 280.4,191.2 282.4,191.2 282.4,196 286.7,196 286.7,191.2 288.7,191.2 288.7,196 293,196 293,191.2 295,191.2 295,196 
			299.4,196 299.4,191.2 301.4,191.2 301.4,196 305.7,196 305.7,185.8 307.7,185.8 307.7,196 312,196 312,191.2 314,191.2 314,196 
			318.4,196 318.4,191.2 320.4,191.2 320.4,196 324.7,196 324.7,191.2 326.7,191.2 326.7,196 328.3,196 328.3,152.3 		"/>
	</g>
</g>
</svg>
