<?xml version="1.0" encoding="utf-8"?>
<!-- Generator: Adobe Illustrator 26.2.1, SVG Export Plug-In . SVG Version: 6.00 Build 0)  -->
<svg version="1.1" id="layer" xmlns="http://www.w3.org/2000/svg" xmlns:xlink="http://www.w3.org/1999/xlink" x="0px" y="0px"
	 viewBox="0 0 1325.2 353.2" style="enable-background:new 0 0 1325.2 353.2;" xml:space="preserve">
<style type="text/css">
	.st0{fill:#FFFFFF;}
	.st1{fill:none;}
</style>
<g>
	<path class="st0" d="M487.2,298.2c52.1,0,82.8-22.3,82.8-71.8c0-28.5-9.5-46.4-45.5-61.8l-37.1-15.7c-20.3-8.6-24.7-17.4-24.7-31.8
		c0-13.7,5.7-23.2,27.4-23.2c18.3,0,26.1,8.8,26.1,30.7h46.2v-6.6c0-44.8-30.9-62.9-73.8-62.9c-45.3,0-73.8,23.2-73.8,68.7
		c0,38.9,19.7,56.3,62.5,70.7c31.8,10.8,42.8,18.8,42.8,40c0,19.7-13.9,25-28.7,25c-25.4,0-31.8-10.2-31.8-32v-6.6h-48.1v9.5
		C411.5,273.2,432.7,298.2,487.2,298.2z"/>
	<polygon class="st0" points="630.1,293.5 678.3,293.5 678.3,98.3 731.7,98.3 731.7,59.6 576.7,59.6 576.7,98.3 630.1,98.3 	"/>
	<path class="st0" d="M763.5,293.5l10.8-49.5h63.8l11,49.5h50.1L836.2,59.6h-59.6l-63.2,233.9H763.5z M806.4,98.3l23.4,107.1H783
		L806.4,98.3z"/>
	<polygon class="st0" points="1152,224.4 1169.7,197.5 1222,293.5 1273.1,293.5 1200.8,159.9 1266.6,59.6 1213.4,59.6 1152,153.3 
		1152,59.6 1103.9,59.6 1103.9,293.3 1152,293.3 	"/>
	<path class="st0" d="M970.5,205.4h25.2l36.9,88.1h47.7l-41.7-99.6c34-6.6,36.2-44.2,36.2-74c0-40-28.7-60.3-63.6-60.3h-88.8v233.9
		h48.1V205.4z M970.3,98.3H993c21.6,0,33.4,11.7,33.4,33.4c0.2,25.2-12.8,35.1-36,35.1h-20.1V98.3z"/>
	<path class="st0" d="M359.6,99.6c0-0.2,0-0.4-0.2-0.7v-0.2v-0.2v-0.2h0.2l-0.4-2l-0.2-1.1V95l-0.4-0.7c-0.2-0.7-0.7-1.1-1.3-1.3
		c-0.2-0.4-0.4-0.7-0.7-0.9c-0.2-0.2-0.7-0.4-1.1-0.7V91h0v30.7c0.4-1,0.7-2,0.9-3.1v-0.4c0.2-0.2,0.2-0.4,0.2-0.7
		c0.2-0.2,0.4-0.7,0.4-0.9c0.4-0.4,0.7-1.1,0.7-1.5v-0.2c0.4-0.4,0.7-0.9,0.7-1.5c0-0.2,0.2-0.4,0.2-0.7l0.2-0.2v-0.2
		c0-0.7,0.2-1.5,0.4-2.2c0.2-0.7,0.4-1.5,0.4-2.4c0-0.2,0-0.4,0-0.4c0.2-0.4,0.2-1.1,0.2-1.5c0-0.2,0-0.4,0-0.7v-1.1
		c0-0.4-0.2-0.7,0-1.1c0-0.4,0-0.9-0.2-1.5c0-0.2,0.2-0.4,0.2-0.7C359.8,100.3,359.8,99.8,359.6,99.6z"/>
	<g>
		<path class="st1" d="M359.6,99.6c0-0.2,0-0.4-0.2-0.7v-0.2v-0.2v-0.2h0.2l-0.4-2l-0.2-1.1V95l-0.4-0.7c-0.2-0.7-0.7-1.1-1.3-1.3
			c-0.2-0.4-0.4-0.7-0.7-0.9c-0.2-0.2-0.7-0.4-1.1-0.7V91h0v30.7c0.4-1,0.7-2,0.9-3.1v-0.4c0.2-0.2,0.2-0.4,0.2-0.7
			c0.2-0.2,0.4-0.7,0.4-0.9c0.4-0.4,0.7-1.1,0.7-1.5v-0.2c0.4-0.4,0.7-0.9,0.7-1.5c0-0.2,0.2-0.4,0.2-0.7l0.2-0.2v-0.2
			c0-0.7,0.2-1.5,0.4-2.2c0.2-0.7,0.4-1.5,0.4-2.4c0-0.2,0-0.4,0-0.4c0.2-0.4,0.2-1.1,0.2-1.5c0-0.2,0-0.4,0-0.7v-1.1
			c0-0.4-0.2-0.7,0-1.1c0-0.4,0-0.9-0.2-1.5c0-0.2,0.2-0.4,0.2-0.7C359.8,100.3,359.8,99.8,359.6,99.6z"/>
		<rect x="374.6" y="19.4" class="st1" width="930.9" height="314.3"/>
		<path class="st0" d="M0,0v353.2h1325.2V0H0z M359.8,102.7c-0.2,0.4,0,0.7,0,1.1v1.1c0,0.2,0,0.4,0,0.7c0,0.4,0,1.1-0.2,1.5
			c0,0,0,0.2,0,0.4c0,0.9-0.2,1.8-0.4,2.4c-0.2,0.7-0.4,1.5-0.4,2.2v0.2l-0.2,0.2c0,0.2-0.2,0.4-0.2,0.7c0,0.7-0.2,1.1-0.7,1.5v0.2
			c0,0.4-0.2,1.1-0.7,1.5c0,0.2-0.2,0.7-0.4,0.9c0,0.2,0,0.4-0.2,0.7v0.4c-0.2,1.1-0.5,2.2-0.9,3.1c-0.1,0.2-0.1,0.4-0.2,0.6
			l-0.4,1.1c-0.2,0.4-0.4,0.7-0.4,1.1v0.2L354,125c-0.2,0.2-0.4,0.4-0.4,0.9c0,0-0.4,0.7-0.4,0.9c0,0.7-0.2,1.3-0.7,2
			c0,0.4-0.2,0.9-0.7,1.3c-0.2,0.4-0.4,0.7-0.4,0.9v0.2l-0.2,0.2c-0.7,0.4-1.1,1.1-1.3,2l-0.7,1.3c-0.4,0.9-0.9,1.8-1.3,2.9
			c-0.7,2-1.5,3.8-2.9,5.3c0,0.4-0.2,0.7-0.4,0.9c-0.2,0.2-0.2,0.2-0.2,0.4v0.2l-0.2,0.2c-0.7,0.7-1.1,1.3-1.5,2.2l-0.2,0.4
			c-0.7,0.7-1.1,1.3-1.5,2.2c-0.4,0.7-0.7,1.3-1.1,1.8c0,0.4-0.4,0.7-0.7,0.7l-0.4,0.4c-0.2,0.4-0.7,0.9-0.7,1.3l-0.2,0.4h-0.2v0.2
			v0.2c0.2,0.2,0.4,0.4,0.4,0.4l-0.9,0.4c0,0,0,0.2-0.2,0.4c-0.2,0.4-0.4,0.9-0.9,1.1c-0.2,0.2-0.2,0.4-0.4,0.7
			c-0.2,0.4-0.7,0.9-1.1,1.3l0.2-0.2l-0.4,0.9c-0.4,0.4-0.7,0.9-1.1,1.3c0,0.4-0.2,0.7-0.7,0.9v0.2l-0.4,0.4c-0.4,0.7-1.1,1.3-1.8,2
			c-0.2,0.4-0.7,0.9-0.9,1.1c-0.2,0.2-0.4,0.4-0.7,0.9v0.2l-1.5,1.5c-0.7,0.9-1.5,1.5-2.2,2.2c0,0.2-2.2,2.7-2.2,2.7l-0.9,1.1
			l-2.4,2.9v0.2h-0.2c-1.1,1.1-2.2,2.4-3.1,3.8c-0.7,0.9-1.3,1.5-2,2.4v-0.2c-0.2,0.4-0.4,0.9-0.9,1.1c-0.2,0.2-0.4,0.4-0.7,0.7v0.2
			l-8,7.5h-0.2h-0.2l-0.2,0.2l-0.2,0.2l-1.1,1.1c-1.1,1.3-2.2,2.2-3.8,2.7c-0.4,0.2-0.7,0.7-1.1,0.9l-0.7,0.4
			c-0.9,1.3-2,2.4-3.3,3.3c-0.4,0.4-0.9,1.1-1.5,1.5l-1.1,0.9c-1.3,0.7-2.4,1.8-3.3,2.9c-0.4,0.2-0.9,0.7-1.3,1.1
			c-0.4,0.7-1.1,1.3-2,1.8c-0.9,0.4-1.5,1.1-2,1.8l-0.7,0.7c-0.4,0.2-0.7,0.4-1.1,0.9c-1.1,0.9-2.2,1.8-3.1,2.7l-2.2,2
			c0,0-0.2,0-0.4,0c-0.2,0.2-0.7,0.7-0.7,0.7c-0.9,0.9-1.8,1.8-2.9,2.4c-0.2,0.4-0.7,0.7-0.9,0.9c-0.4,0.2-0.4,0.2-0.4,0.4v0.4
			l-0.4,0.2c-0.2,0.2-0.4,0.4-0.7,0.7c-0.2,0.2-0.4,0.4-0.9,0.7c-0.2,0.7-0.7,1.1-1.1,1.5l-0.7,0.2c-0.2,0.2-0.9,0.4-1.3,0.2
			l-0.2-0.2l-0.2,0.2l-0.2-0.9h-0.2c-0.2,0-0.4-0.2-0.7-0.4c-0.7,0-1.1-0.2-1.8-0.4l-0.2-0.2l-0.2-0.2l-0.4-0.2
			c-0.7-0.2-1.1-0.7-1.5-1.1c-0.2,0-0.4,0-0.7-0.2h-0.2c-1.5-0.7-2.4-2.2-2.7-4c0.2-0.9,0.7-1.5,1.3-2.2l0.4-0.4l0.4-0.7
			c0.2-0.2,0.4-0.4,0.4-0.7l0.2-0.2l0.7-0.4c0.2-0.2,0.4-0.2,0.7-0.4c0.2-0.4,0.4-0.7,0.7-0.7v-0.4c0,0,0.2,0,0.4,0l0.4-0.7h0.2
			c0.4-0.4,0.7-0.9,1.1-1.3c0.4-0.4,0.9-0.9,1.1-1.5l1.1-0.9c0.4-0.4,0.9-0.9,1.3-1.5l0.2-0.2h0.2c0.2-0.2,0.4-0.4,0.7-0.7
			c0.4-0.4,0.9-0.9,1.1-1.3l0.7-0.9l0.2-0.2l0.4-0.4l0.2,0.2c0.2,0,0.2,0,0.2,0c0.2-0.2,0.2-0.2,0.2-0.2v-0.2
			c0.4-0.4,0.9-0.9,1.3-1.1c0,0,0.7-0.7,0.9-0.7c0.2-0.4,0.7-0.7,1.1-0.9c0.2-0.7,0.7-0.9,1.1-1.1c0-0.2,0.2-0.2,0.4-0.4
			c0.2-0.2,0.4-0.4,0.9-0.7c0.2-0.2,0.2-0.2,0.2-0.2V197h0.2c0.2-0.2,0.2-0.2,0.4-0.4c0.2-0.4,0.7-0.7,1.1-0.7
			c0.2-0.4,0.9-0.9,1.3-1.1c0.7-0.2,1.1-0.7,1.3-1.1c0.2-0.4,0.7-1.1,1.3-1.3c0.2,0,0.4-0.2,0.7-0.4l0.2-0.2h0.2c0,0,0.2,0,0.2-0.2
			l0.4-0.7h0.2c0.4,0,0.7-0.2,0.9-0.7c0.4-0.4,0.9-0.9,1.3-1.1c0.2-0.4,0.4-0.9,0.9-1.1c0.2-0.4,0.7-0.7,0.9-1.1v-0.2h0.2
			c0.7-0.2,1.1-0.7,1.5-1.1c0.4-0.7,1.1-1.1,1.8-1.3c0.4-0.7,0.9-1.3,1.5-1.8c0.2,0,0.4-0.2,0.4-0.4c0.2-0.4,0.4-0.9,0.9-1.1
			c0.2-0.2,0.4-0.7,0.7-0.9c0.4-0.4,0.7-0.7,0.7-0.9c0.2-0.4,0.4-0.9,0.9-1.1c0.2-0.2,0.2-0.4,0.4-0.7v-0.2c0.2-0.7,0.4-1.5,0.9-2
			c0.4-0.4,0.7-0.9,0.7-1.3v-0.2l-0.2-0.7h0.4c0.2-0.7,0.4-1.3,0.4-2.2c0-0.9,0.2-1.8,0.4-2.7v-2.4c0-0.4,0-0.9,0-1.3
			c0-0.9-0.2-1.8-0.4-2.7v-0.2v-0.2c0-0.2,0-0.2,0-0.4c0,0-0.2-0.2-0.2-0.4l-0.2-0.2v-0.9c0-0.4,0-0.7,0-0.9c0.2-1.1,0-2.2-0.4-3.3
			v-0.2v-0.2v-0.2c0-0.4-0.2-1.1-0.4-1.5l-0.2-0.7V152c0-0.2,0-0.2,0-0.2c0-0.2,0-0.2,0-0.2l-0.2-0.2v-0.2c0-0.2,0-0.2,0-0.4
			c0-0.4-0.2-0.9-0.2-1.3v-0.9c-0.2-0.2-0.4-0.7-0.4-0.9v-0.2v-0.2v-0.2c-0.2-0.7-0.4-1.3-0.9-1.8l-0.2-0.2l0.2-0.4
			c0-0.2-0.2-0.2-0.2-0.4s-0.2-0.4-0.2-0.7c-0.7-0.9-1.1-1.8-1.3-2.9c-0.2-0.2-0.4-0.4-0.4-0.7v-0.2c0-0.4-0.4-0.9-0.7-1.1
			c-0.4-0.4-0.7-0.9-0.9-1.5l-0.9-1.1c-0.4-0.7-1.1-1.3-1.3-2.2c-0.4-0.4-1.1-0.9-1.5-1.5s-1.1-1.3-1.8-1.8
			c-0.4-0.4-0.7-0.9-1.1-1.3c-0.2-0.4-0.7-0.9-1.1-1.1c-0.4-0.2-0.7-0.2-0.9-0.4c-0.2-0.2-0.2-0.2-0.4-0.2h-0.4l-0.2-0.4
			c0,0-0.2-0.2-0.4-0.2c-0.2-0.2-0.4-0.2-0.7-0.4c-0.2,0-0.7,0-0.9-0.2c-0.2-0.2-0.7-0.2-0.9-0.2h-0.2l-0.2-0.2
			c-0.4-0.2-0.7-0.4-1.1-0.4s-0.9-0.2-1.3-0.4c-0.7,0-1.5,0-2.2-0.2l-2-0.2h-0.2c-0.4,0-0.9-0.2-1.5-0.2h-0.9h-0.7
			c-0.4,0-1.1,0-1.5,0.2h-0.2l-6-0.4h-1.1h-0.2c0,0,0,0-0.2,0c-0.2,0-0.4,0-0.7,0c-0.4,0.2-0.7,0.2-1.1,0l-0.2,0.2H258
			c-1.3,0-2.7,0-3.8,0H254h-0.2c-0.2,0-0.7,0-0.9,0c-0.4,0-0.7,0-1.1,0c-0.9,0.2-1.5,0.2-2.4,0c-0.7-0.2-1.3-0.2-2,0h-0.2h-0.2
			c-0.9,0-1.8-0.2-2.7-0.2c0,0-0.9,0-1.1,0c-0.2,0-0.4,0-0.7,0l-0.2,0.2h-0.4c-1.1-0.2-2-0.2-2.9,0h-5.5H233v-0.2
			c-0.2,0.2-0.7,0.2-0.9,0c-1.5,0-3.1,0.2-4.6,0.2H227h-0.2c-0.7,0.2-1.3,0.2-2,0.2l-0.2,0.2h-1.5c-1.1-0.2-2-0.2-2.9,0l-2.7-0.2
			l-2.2-0.2c-0.2,0-0.4,0-0.7,0c-0.2,0-0.7,0-0.9,0c-0.9,0.2-1.8,0.2-2.7,0.2c-0.7,0-1.3,0-2,0.2h-1.3c-0.7-0.2-1.3-0.2-1.8,0.2
			c-0.4,0.2-1.1,0.4-1.5,0.2c-0.4,0-0.7,0-0.7,0l-0.4,0.4l-0.4-0.4h-0.2h-0.2c-0.2,0.2-0.7,0.2-1.1,0.2H201h-0.9
			c-0.7,0.2-1.1,0.2-1.8,0c-0.7-0.2-1.1-0.2-1.5,0l-0.2,0.2h-0.2c-0.7,0-1.5,0-2.2,0c-0.7,0-1.5-0.2-2.2-0.2
			c-0.2,0.4-0.2,0.9-0.2,1.5v0.2l-0.2,0.2c-0.4,0.2-0.4,0.7-0.4,1.3l-0.2,1.3c-0.2,0.2-0.2,0.7-0.2,0.9c0,0.2,0,0.2,0,0.4
			c0,0,0,0.7,0,0.9v0.2c0,0,0,0.2,0,0.4v0.2c0,0.2,0,0.2,0,0.2l0.2,0.2l-0.2,0.2c0,0.2,0,0.4,0,0.7c0,0.2,0,0.4,0,0.7v0.2v0.2
			c0,0.2,0,0.4,0,0.7c0,0.4,0,0.9,0.2,1.3c0.2,0.4,0.2,1.1,0.2,1.5s0,0.7,0,0.9c0,1.1,0,2,0.4,3.1c0.2,0.7,0.2,1.3,0,2v0.2
			c0,0.2,0,0.4,0,0.7c0,0.7,0,1.3,0.4,2l0.2,0.2l-0.2,0.2v0.2c0,0.2,0,0.2,0,0.4c0,0,0,0.2,0,0.4s-0.2,0.4-0.2,0.7
			c0.2,0.4,0.2,0.7,0.2,1.1c0,0.2,0,0.4,0.2,0.7v0.2v0.7c0,0.2,0,0.7,0,0.9c0,0.2,0,0.2,0,0.4c0.2,0.2,0.7,0.7,0.7,0.7l-0.2,0.2
			c0,0.2,0.2,0.9,0.2,0.9c0.4,0.9,0.7,1.8,0.9,2.7c0.2,0,0.2,0.2,0.2,0.2c0,0.2-0.2,0.4-0.2,0.4c0.7,1.3,1.1,2.7,1.3,4.2
			c0.2,0.4,0.4,1.1,0.4,1.8c0,0.2,0.2,0.7,0.4,1.1c0.2,0.4,0.4,1.1,0.4,1.8c0,0.2,0.2,0.7,0.2,0.9c0.4,0.4,0.7,1.3,0.9,2
			c0.2,0.7,0.4,1.3,0.9,1.8l0.2,0.4v0.2c0.2,0.2,0.4,0.4,0.4,0.7l0.4,1.1c0,0,0.2,0.7,0.2,0.9c0.4,0.4,0.7,0.9,0.9,1.3
			c0,0.4,0.2,0.7,0.4,0.9h0.2v0.2c0.2,0.7,0.7,0.9,0.9,0.9h0.2h0.2c0.4,0,0.7,0.4,0.7,0.7v0.2h0.2c1.1,1.1,2.4,2.4,3.8,3.8l2.2,2.2
			c0.4,0.4,0.9,0.9,1.5,1.3c0,0,0.9,0.7,1.1,0.9h0.2c0.4,0,0.9,0.2,1.3,0.7c0.4,0,0.7,0.2,1.1,0.4c0.2,0,0.7,0,0.9,0.2
			c0.4,0,0.9,0.2,1.1,0.4c0.2,0.2,0.2,0.2,0.4,0.2h0.2h0.2c0.4,0.2,0.9,0.4,1.1,0.9c0.4,0.2,0.7,0.4,0.9,0.4c0.7,0,1.1,0.4,1.3,1.1
			c0.2,0.4,0.2,0.4,0.4,0.4h0.4v0.4c0,0,0,0,0.2,0.2c0.3,0,0.6,0.3,0.7,0.5l0.6,0.4c0.9,0.2,1.3,0.9,1.8,1.5l0.4,0.2
			c0.2,0.2,0.7,0.4,0.9,0.9c0.2,0.2,0.4,0.4,0.7,0.7c0.2,0.2,0.7,0.4,0.9,0.9c0.2,0.2,0.4,0.2,0.4,0.4c0.4,0,0.9,0.2,1.3,0.7
			c0.2,0.2,0.4,0.4,0.7,0.4l0.9,0.2c0,0-0.2,0.2-0.2,0.4c0.2,0,0.2,0,0.4,0.2c0.2,0.2,0.7,0.7,0.9,0.9c0.4,0.4,0.9,0.9,1.1,1.5v-0.2
			c0.9,1.3,1.8,2.4,2.9,3.3v0.2l0.7,0.9c0.2,0.4,0.4,0.7,0.7,1.1c0.4,0.4,0.9,1.1,1.3,1.5l1.1,1.3c0.4,0.4,0.7,0.9,0.9,1.3
			c0,0.4,0.4,0.7,0.7,1.1l0.4,0.4l-0.2,0.2l0.4,0.7c0.4,0.4,0.7,0.9,0.9,1.5c0.2,0.2,0.7,0.7,0.9,1.1l0.4,0.7l0.2,0.2v0.2l0.2,0.2
			c0.2,0.2,0.4,0.4,0.4,0.7c0,0.2,0.2,0.4,0.2,0.7h0.2l0.2,0.2c0.4,0.9,0.9,1.5,1.3,2.4c0.4,0.7,0.9,1.5,1.3,2.4
			c0.7,0.7,1.3,1.3,1.5,2.2c0,0.4,0.4,0.9,0.7,1.3c0.2,0.4,0.4,1.1,0.7,1.8c0.2,0.7,0.4,1.3,0.9,2v0.2v0.2c0,0.7,0.2,1.1,0.4,1.5
			c0.4,0.4,0.7,1.1,0.7,1.8l0.2,0.4c0,0.4,0.2,0.7,0.2,1.1c0.4,0.2,0.7,0.7,0.7,1.1c0,0.2,0.2,0.7,0.4,0.9l0.2,0.2v0.2
			c0.2,1.3,0.7,2.7,1.3,4l1.1,2.4c0.2,0.7,0.4,1.5,0.7,2.2c0.2,0.9,0.7,1.8,1.1,2.7l0.2,0.4l-0.2,0.2c0.2,0.2,0.4,0.4,0.4,0.7v0.2
			c0,0.4,0.2,0.9,0.4,1.3c0.4,0.7,0.7,1.3,0.7,2c0,0.2,0,0.2,0,0.4c0.4,0.4,0.7,1.1,0.9,1.8c0.2,0.7,0.4,1.3,0.9,2v0.4
			c0,0.2,0.2,0.2,0.2,0.4c0.2,0.4,0.4,0.7,0.4,1.1c0.4,0.4,0.7,1.1,0.9,1.8l0.2,0.7v0.2v0.2v0.2c0.2,0.2,0.4,0.7,0.4,0.9v0.2
			l0.4,0.2c0,0,0,0.4,0,0.7c0.2,0.2,0.4,0.4,0.4,0.7v0.2l0.7,0.4l-0.2,0.2v0.2v0.2c0.2,0.4,0.2,0.7,0.4,0.9c0.4,0.7,0.7,1.1,0.7,1.8
			c0.2,0.2,0.2,0.4,0.2,0.7v0.2v0.2c0.4,0.9,0.7,1.5,0.9,2.4c0.2,1.1,0.7,2.2,1.1,3.1v0.4v0.2l0.4,0.4v0.4c0,0.2,0,0.4,0,0.7
			c0,0.2,0,0.2,0,0.4c0.2,0.2,0.2,0.7,0.2,0.9v0.2v0.2c0,0.2,0,0.2,0,0.2l0.2,0.2v0.4c0.2,0.2,0.2,0.2,0.2,0.4
			c0.2,0.2,0.2,0.7,0.2,0.9c0,0.2,0,0.4-0.2,0.7c0.2,0.9,0.2,2,0.2,3.1c0,2-0.2,3.8-0.4,5.5v0.4h-0.2c0,0.2,0,0.4-0.2,0.7l0.2-0.2
			l-0.9,1.5c-0.9,1.8-2.2,3.5-3.8,4.9v0.2c-0.2,0.2-0.7,0.4-0.9,0.4h-0.2c-0.4,0.4-1.3,0.7-2,0.7c-0.9,0.4-2,0.7-2.9,0.7
			c-0.9,0-1.8,0.2-2.7,0.4h-0.2h-0.2c-0.2-0.2-0.7-0.2-0.9-0.2c-0.7,0-1.1-0.2-1.5-0.4l-0.2-0.2v-0.2c0-0.2-0.4-0.4-0.4-0.4
			c-0.2-0.2-0.7-0.7-0.9-0.9c-0.7-0.4-1.1-1.1-1.3-1.8c-0.7-0.4-1.1-1.1-1.5-1.8l-1.1-1.3l-0.2-0.2v-0.2c-0.2-0.2-0.4-0.7-0.4-0.9
			c-0.2-0.4-0.4-0.9-0.7-1.3l-0.2-0.7c0-0.7-0.2-1.1-0.7-1.8c-0.4-0.9-0.9-1.8-0.9-2.9c-0.4-0.4-0.7-1.1-0.7-1.5
			c0-0.4,0-0.4-0.2-0.7v-0.2l-0.2-0.4c-0.2-0.2-0.2-0.7-0.2-0.9v-0.2c-0.4-0.7-0.7-1.5-0.7-2.2c-0.2-0.2-0.2-0.7-0.2-0.9V282
			l-0.4-0.2v-0.4v-0.2c0-0.4,0-0.7-0.2-0.9c-0.2-0.4-0.4-0.9-0.4-1.3v-0.2c-0.7-1.3-0.9-2.7-0.9-4c-0.2-0.7-0.4-1.1-0.4-1.8
			l-0.2-1.1c0-0.7-0.2-1.3-0.2-2v-0.2l-0.2-0.7c-0.2-0.2-0.2-0.7-0.4-1.1l-0.2-0.9c-0.2-0.9-0.4-1.8-0.7-2.7h-0.2v-0.7
			c-0.2-0.2-0.2-0.2-0.2-0.4c-0.2-0.2-0.2-0.4-0.2-0.9v-0.2c0-0.2-0.2-0.7-0.2-0.9c-0.2-0.2-0.2-0.2-0.2-0.2l-0.2-0.2v-0.2
			c-0.2-1.1-0.4-2.4-0.9-3.5l-0.2-0.2c-0.4-0.7-0.7-1.3-0.9-2.2c-0.2-0.9-0.7-1.8-1.1-2.4l-0.2-0.4v-0.2c-0.2-0.2-0.4-0.7-0.4-0.9
			c-0.4-0.4-0.7-1.1-0.9-1.8c-0.2-0.7-0.4-1.1-0.7-1.5c-0.2-0.2-0.4-0.7-0.7-1.1l-0.2-0.4c-0.4-0.2-0.7-0.7-0.7-1.1
			c0-0.2-0.2-0.4-0.2-0.4h-0.2l-0.9-1.8l-1.1-2c-0.4-0.4-0.7-0.9-0.9-1.3c-0.2-0.4-0.4-0.9-0.9-1.1l-0.2-0.2l-0.2-0.7
			c-0.2,0-1.1-1.5-1.1-1.5c-0.4-0.4-0.7-1.1-1.1-1.8c-0.4-0.2-0.9-0.7-1.1-1.1l-0.2-0.4l-0.4-0.7l-0.2-0.2c-0.7-0.7-1.3-1.5-2-2.2
			c-0.9-0.9-1.5-1.8-2-3.1c-0.2-0.2-1.8-2-1.8-2c-0.7-0.7-1.3-1.5-2.2-2.2l-0.2-0.2v-0.2c0-0.4-0.2-0.9-0.7-1.1
			c-0.4-0.2-0.7-0.7-0.9-0.9c-0.7-0.4-1.1-0.9-1.5-1.5c-0.2-0.4-0.7-0.9-1.1-1.3v-0.2c-0.2-0.2-0.4-0.7-0.7-0.9l-0.2-0.2
			c-0.4-0.4-0.9-0.9-1.3-1.3c-0.4-0.4-1.1-0.9-1.5-1.3c0,0-0.2,0-0.4-0.2c-0.9-0.7-1.8-1.3-2.4-2c-0.9-0.9-1.8-1.5-2.9-2
			c-1.3-0.7-2.4-1.5-3.5-2.4c-1.5-1.3-3.1-2.2-4.9-3.1c0,0-0.9-0.7-1.3-1.1l-0.4-0.2c-0.4-0.4-0.9-0.7-1.3-1.1
			c-0.2-0.4-0.7-0.7-1.1-0.9l-0.2-0.2v-0.2h-0.2c-0.2,0-0.4-0.4-0.7-0.7c-0.4-0.2-1.1-0.7-1.1-0.7c-0.7-0.7-1.3-0.9-2-1.1h-0.2
			l-0.2-0.2c-1.3-1.3-2.9-2.2-4.6-2.7l-0.2-0.2c-0.2-0.2-0.4-0.2-0.7-0.2h-0.4c-2.2-0.4-4.6-0.7-6.8,0h-0.2h-0.2h-0.4
			c-0.2,0.2-0.4,0.2-0.7,0.2c-0.2,0.2-0.7,0.4-1.1,0.2h-0.2l-1.5,0.7c-0.7,0.4-1.5,0.7-2.2,0.9l-1.8,0.9l-2.2,1.1l-0.4,0.4
			c-0.2,0.4-0.4,0.4-0.4,0.7v0.2l0.2,0.4l-0.4,0.2c-0.7,0.4-1.3,0.9-1.8,1.5l-0.2,0.2h-0.2v0.2l-0.4,0.7c-0.7,0.7-1.3,1.1-2.2,1.3
			c-0.7,0.4-1.1,0.9-1.5,1.5c-0.4,0.9-1.3,1.8-2.4,2.2l-0.2,0.2c-0.4,0.9-1.3,1.3-2.2,1.8c-0.2,0.2-0.4,0.4-0.9,0.7l-0.7,0.4
			c-0.4,0.2-0.9,0.4-0.9,0.9v0.2l-0.2,0.2c-0.7,0.4-1.3,0.9-1.8,1.3v0.2l-0.7,0.4h-0.2c-0.4,0.4-0.9,0.9-1.3,1.5
			c-0.4,0.7-0.9,1.3-1.5,1.8v0.2l-0.7,1.1l-2.4,4l-1.1,1.1c-0.4,0.9-1.1,1.5-1.8,2.2c-0.7,0.9-1.3,1.8-1.8,2.7v0.2
			c-0.7,0.4-0.9,0.9-1.3,1.5c-0.4,0.7-0.9,1.3-1.3,1.8c-0.4,0.2-0.7,0.7-0.9,1.1c-0.2,0.9-0.9,1.3-1.5,1.8c-0.2,0.2-0.4,0.9-0.4,0.9
			c-0.2,0.7-0.7,1.3-1.1,2c0,0.4-0.2,0.7-0.4,0.9v0.2l-0.2,0.2c-0.7,0.9-1.1,1.8-1.3,2.9v0.2l-0.2,0.2c-0.2,0.4-0.4,0.7-0.4,1.1
			l-0.2,0.7c-0.2,0.7-0.4,1.3-0.7,1.8c-0.4,0.7-0.7,1.3-0.7,2v0.2v0.2c-0.7,1.3-1.1,2.7-1.5,4l-0.4,1.1c0,0.4-0.2,1.1-0.7,1.5
			c0,0.4-0.2,0.9-0.4,1.3c0,0.2-0.2,0.7-0.2,0.9v0.2l-0.2,0.2c-0.2,0.4-0.7,1.1-0.7,1.5c-0.2,0.7-0.4,1.3-0.9,1.8
			c-0.2,0.7-0.4,1.3-0.7,2c-0.2,0.7-0.4,1.3-0.7,2v0.2l-0.2,0.2c0,0-0.2,0.2-0.2,0.4c0,0.4-0.2,0.7-0.4,0.9l-0.4,1.5l-0.4,1.8
			c-0.7,1.3-0.9,2.7-0.9,4v0.2l-0.2,0.2v0.2v0.2c0,0.2,0,0.4-0.2,0.7V275l-0.4,1.3c-0.4,0.7-0.7,1.5-0.7,2.2v0.2v0.2v0.2v0.2
			c0,0.2-0.2,0.7-0.4,0.9c-0.2,1.5-0.4,3.1-0.4,4.6v0.2v0.2c-0.4,0.7-0.7,1.5-0.7,2.2c0,0.9-0.2,1.8-0.7,2.4
			c-0.2,0.2-0.2,0.7-0.4,0.9l-0.2,0.7c-0.7,0.9-1.5,1.8-2.7,2.4l-0.9,0.7h-0.2h-0.2h-0.2c-0.2,0.4-0.4,0.4-0.9,0.4
			c-0.4,0.4-0.9,0.4-1.3,0.7c-0.4,0-0.9,0.2-1.1,0.4l-0.2,0.2h-0.2c-0.2,0-0.7,0-0.9,0c-0.4,0-1.1,0-1.5,0c-1.8,0.2-3.5-0.4-4.9-1.5
			l-0.2-0.2v-0.2c-0.2-0.2-0.2-0.2-0.4-0.4c-0.4-0.4-0.7-0.9-0.7-1.3c-0.4-0.4-0.7-0.9-0.9-1.5c0,0-0.2-0.4-0.2-0.7
			c-0.2,0-0.2,0-0.2,0l-0.2-0.9c-0.2-0.9-0.4-2-0.4-2.9c0-0.7,0-1.3-0.2-2v-0.4l0.2-0.2v-0.2c-0.2-0.2-0.2-0.4-0.2-0.7
			c0,0,0.2-0.2,0.2-0.4c0-0.7,0-1.3,0-2c0-0.4,0-1.1,0-1.5v-2.9l0.4-2.4c0.2-1.1,0.4-2.2,0.4-3.3c0-0.4,0-0.7,0-1.1v-0.2l0.2-1.1
			c0-0.7,0.2-1.5,0.7-2.2v-0.2c0-0.2,0.2-0.7,0.2-0.9c0.2-0.2,0.2-0.4,0.2-0.7v-0.2v-0.2l0.2-0.2v-0.2V263c0-0.4,0-0.7,0.2-0.9
			c0.2-1.8,0.7-3.5,1.3-5.3v-0.2c0-0.2,0-0.7,0.2-0.9c0.2-0.2,0.2-0.4,0.2-0.7c0-0.2,0-0.2,0-0.2v-0.2l0.4-0.9
			c0.2-0.4,0.4-0.9,0.4-1.3v-0.2V252l0.2-0.9c0-0.4,0-0.7,0.2-0.9l0.4-1.8c0.2-1.3,0.7-2.4,1.3-3.5c0.4-0.9,0.9-1.5,0.9-2.4
			c0.2-0.9,0.4-1.8,0.9-2.7c0-0.2,0-0.2,0-0.2c0-0.2,0.2-0.4,0.2-0.7v-0.2c0-0.2,0-0.2,0-0.4c0.2-0.4,0.2-1.1,0.7-1.5
			c0.2-0.2,0.4-0.7,0.4-0.9l0.2-0.4c0.2-0.4,0.2-0.9,0.4-1.5l1.1-2.2c0.4-1.5,1.3-3.1,2-4.4c0.9-1.1,1.8-2.4,2.4-3.8l1.3-2.2
			c0-0.2,0.2-0.7,0.4-0.9c0-0.2,0.2-0.4,0.2-0.7c1.1-1.5,2.2-3.3,3.5-4.6c0.2-0.4,0.7-1.1,1.1-1.5l0.7-0.9c1.8-1.3,3.1-3.3,4-5.3
			v-0.2h0.2c0.4-0.2,0.7-0.4,0.9-0.9c0.4-0.4,0.9-0.9,1.3-1.1c0.4-0.4,0.9-0.9,1.3-1.3l0.2-0.2c0.2-0.4,0.4-0.9,0.9-1.1
			c0.2-0.2,0.4-0.2,0.4-0.4v-0.2c0.7-0.4,1.1-1.1,1.8-1.8l1.1-1.3l1.5-1.5c0,0,0.2-0.4,0.7-0.7l-0.2-0.2l0.7-0.4
			c0.2-0.2,0.7-0.4,0.9-0.9c0.2-0.7,0.7-1.1,1.3-1.3l1.5-1.8l1.3-1.5c0.9-0.4,1.5-1.1,2-2v-0.2h0.2c1.3-0.9,2.4-1.8,3.3-2.9l0.2-0.2
			c0,0,0.2,0,0.4-0.2l-0.2-0.4l0.9-0.2c0.2-0.2,0.4-0.2,0.7-0.7c0.2-0.6,0.6-0.9,1-1.1c1-1.1,1.9-2.3,2.5-3.8v-0.2h0.2
			c0.2-0.2,0.2-0.4,0.4-1.1c0-0.7,0.4-1.1,0.9-1.5c0,0,0.2-0.2,0.2-0.4l0.4-0.4c0.7-0.9,0.9-2,0.9-3.1c0-0.9,0-1.8,0.2-2.4
			c0-0.2,0-0.4,0-0.7c0-0.2,0-0.4,0-0.7v-0.2v-0.4c0.2-0.4,0.2-1.1,0.2-1.5c0-0.2,0-0.2,0-0.4l-0.2-0.2V165c0.2-1.5,0.4-2.9,0.4-4.4
			l0.2-2.9c0,0,0-0.2,0-0.4c0-0.4,0-0.7,0-0.9c0-0.2,0-0.7,0.2-0.9V155c0-0.2,0-0.4,0-0.7s0-0.4,0-0.7c0,0,0-0.2,0-0.4
			c0.2-0.4,0.2-0.7,0.2-1.1c0-0.2,0-0.7,0-0.9c0-0.2,0-0.7-0.2-0.9c-0.4-0.4-0.4-0.7-0.4-1.1c0-0.2,0-0.2,0-0.4v-0.2v-0.2v-1.8
			c0-0.9,0-1.8,0-2.7c0-0.2,0-0.7,0-0.9c-0.2-0.2-0.2-0.4-0.2-0.7c0-0.2,0-0.2,0-0.4c0-0.4,0-0.9,0-1.3c0-1.8-0.2-3.3-0.7-4.9
			l-0.2-2.4l-0.2-2.7c-0.2-0.2-0.2-0.7-0.2-1.1c0-0.2,0-0.4,0-0.4V129c0,0,0-0.2,0-0.4s0-0.4,0-0.7c0-0.2,0-0.4,0-0.7
			c0-0.2,0-0.4,0-0.7c0-0.4,0-0.9-0.2-1.3V125v-0.2c0.2-0.7,0.2-1.1,0.2-1.8c0-0.7-0.2-1.3-0.2-2c0,0,0-0.9,0-1.1h-0.2
			c-0.2,0-0.4,0-0.7,0c-0.7,0.2-1.5,0.2-2.2,0.2c-0.9,0-1.5,0.2-2.2,0.2c-0.9,0.2-2,0.2-2.9,0.2c-0.7-0.2-1.5,0-2.2,0h-0.2h-0.7
			c0,0-0.4,0-0.7,0c-0.2,0.2-0.9,0.2-0.9,0.2c-0.4,0-0.9,0-1.3,0.2h-1.1c-0.4,0-0.7,0-1.1,0.2h-0.2h-0.2c-0.7,0-1.5,0-2.2,0h-2
			c-0.7,0.2-1.5,0.2-2.2,0.2c-0.7,0-1.3,0-1.8,0.2h-0.2h-0.9c-0.7,0-1.1-0.2-1.5-0.2c-0.2,0.2-0.7,0.2-0.9,0
			c-1.3,0.2-2.4,0.4-3.5,0.2h-1.1c-1.5,0-2.9,0.2-4.4,0.4c-1.5,0.2-3.1,0.4-4.6,0.4h0.2c-0.9,0.2-2,0.2-2.9,0
			c-1.1,0.2-2.4,0.4-3.8,0.4h-0.9c-0.7,0.2-1.3,0.2-2,0.2c-0.2,0.2-0.7,0.2-0.9,0.2c-0.2,0-0.4,0.2-0.7,0.2
			c-0.7,0.2-1.1,0.2-1.8,0.2c-0.7,0-1.3,0.2-2,0.4c-0.4,0.2-0.9,0.2-1.3,0.2c-0.4-0.2-0.9,0-1.1,0.2l-0.2,0.2h-0.2
			c-0.4,0.2-1.1,0.2-1.8,0.4l-0.9,0.2l-0.9,0.2c-0.7,0-0.9,0.2-1.1,0.4c0.2,0.7,0.2,1.3,0.2,2c0,0.7,0,1.3,0.2,2v0
			c0.2,0.7,0.2,1.5,0.4,2.2c0.2,0.7,0.4,1.5,0.4,2.2c0.2,0.2,0.2,0.4,0.2,0.7v0.2v0.2c0,0.2,0,0.4,0.2,0.4H83v0.2
			c0.2,0.9,0.4,1.5,0.4,2.4l0.2,0.9c0.2,0.7,0.4,1.1,0.4,1.8l0.2,0.9v0.4l-0.2,0.2c0.2,0.2,0.2,0.4,0.2,0.7v0.2c0.4,1.8,0.7,4,0.9,6
			l0.4,3.1l0.2,2c0,1.3,0.2,2.7,0.7,3.8v0.2v0.2c-0.2,1.1-0.9,2.2-1.8,2.7h-0.2h-0.2c-0.4,0-0.9,0.2-1.3,0.4
			c-0.4,0.2-0.9,0.2-1.3,0.4c-0.4,0-1.1,0.2-1.5,0.2c-0.4,0-0.9,0-1.3,0.2c-0.7,0.2-1.3,0.2-2,0.2c-0.4,0-1.1,0-1.5,0h-0.4v-0.2
			c-0.2,0-0.4-0.2-0.7-0.4l0.2,0.2c-0.9-0.4-1.3-1.3-1.5-2.4v-0.2c0-0.2,0-0.7-0.2-0.9c-0.2-0.2-0.2-0.7-0.2-1.1
			c-0.2-0.7-0.4-1.3-0.4-2c0-1.1-0.2-2-0.9-2.9c-0.2-0.4-0.2-0.9-0.2-1.3c-0.2-0.7-0.2-1.1-0.4-1.3l-0.2-0.2l0.2-0.4V150
			c0-0.2,0-0.2-0.2-0.4c-0.2-0.2-0.4-0.7-0.4-1.1v-0.2c-0.2-0.2-0.4-0.7-0.4-1.1c-0.2-0.4-0.4-0.7-0.4-1.1s0-0.7-0.2-0.9l-0.2-0.2
			l-0.2-1.5c-0.2-0.4-0.2-1.1-0.2-1.5c-0.4-0.4-0.7-0.9-0.7-1.5v-0.4c-0.4-1.1-0.7-2.2-0.9-3.3l-0.2-1.1l-0.7-2.9
			c-0.2-0.9-0.4-2-0.7-3.1l-0.4-1.3c-0.4-1.3-0.7-2.9-0.9-4.2c-0.2-0.7-0.4-1.5-0.4-2.2c0-0.2,0-0.2,0-0.4v-0.4c0-0.4,0-1.1-0.2-1.5
			c-0.2-1.3-0.4-2.4-0.4-3.8c0-1.1,0-2-0.2-2.9l-0.2-1.1c-0.2-0.4-0.2-0.9-0.2-1.5c0-0.2,0-0.4,0-0.7l-0.2-1.1l-1.3-7.5l-0.2-2
			c-0.2-1.5-0.4-2.9-0.4-4.4v-0.2c-0.2-0.2-0.2-0.4-0.2-0.7c0-0.2,0-0.2,0-0.4v-0.2c-0.4-0.9-0.7-1.5-0.7-2.4
			c-0.2-0.9-0.4-1.8-0.9-2.4c-0.2-0.4-0.2-0.9-0.2-1.3c0-0.4,0-0.9-0.2-1.1h-0.2c-0.2,0-0.4,0-0.7-0.2v0.2h-0.4
			c-0.9-0.2-1.8,0-2.7,0.2l-1.5,0.2c-0.9,0-1.5,0-2.4,0c-0.7,0-1.3,0-2,0h-0.2H47c-0.7,0-1.5,0-2.4,0.2c-1.3,0.2-2.7,0.2-4-0.2h-0.2
			v-0.2c-0.9-1.1-1.5-2.2-2-3.3l-0.2-2.7c0-1.5-0.2-2.9-0.7-4.4l-0.2-0.7c-0.2-0.7-0.4-1.3-0.4-2c-0.2,0-0.2-0.2-0.2-0.4V72
			c0-0.2,0-0.4,0-0.7s-0.2-0.2-0.2-0.4c0,0-0.2-0.7-0.2-0.9c-0.4-0.2-0.7-0.7-0.7-1.1c0-0.2-0.2-0.2-0.2-0.4v-0.2V68
			c0-0.2,0-0.4,0.2-0.7c0-1.5,0.4-2.9,1.3-4l0.9-0.7c0.9-0.9,1.8-1.3,2.9-1.3c0.2,0,0.4-0.2,0.7-0.2h0.2l0.4-0.7l0.2,0.2
			c0.2-0.2,0.4-0.2,0.7-0.2h0.2l1.1-0.2c0.2-0.2,0.4-0.2,0.7-0.2l1.1-0.2h0.2h0.2c1.1,0,2,0.2,3.1,0H51c0.9,0,1.8,0,2.7-0.4l0.4-0.2
			h0.7c0.4,0,0.4,0,0.7-0.2c0.2-0.2,0.7-0.2,1.1,0h0.2H57h0.2c0.2,0,0.4,0,0.7,0c0.7-0.2,1.3,0,2,0.2c0.4,0,0.9,0,1.3-0.2
			c0.7-0.2,1.3-0.2,2-0.2l1.5-0.2c0.9-0.2,1.8-0.2,2.7-0.2c0.4,0,0.7,0,1.1,0h0.7c0.4-0.2,1.1-0.2,1.5-0.2c0.4,0.2,1.1,0,1.5-0.2
			l0.2-0.2h0.2c0.7,0,1.5,0,2.4-0.2c0.7-0.2,1.5-0.2,2.4-0.2c1.3-0.2,2.7-0.4,4-0.9c1.8-0.7,3.5-0.9,5.3-0.9c0.9,0,1.8,0.2,2.4,0.7
			l0.4,0.9c0.7,0.7,1.1,1.5,1.1,2.4c0.2,0.9,0.4,2,0.4,2.9v1.1l0.2,0.4v0.2c0.2,1.3,0.4,2.4,0.9,3.5v0.7l0.2,0.7v-0.2
			c0.7,1.3,0.9,2.4,0.9,3.8v0.2v0.7c0.2,0.7-0.2,1.5-0.7,2c0,0.4-0.4,0.9-0.7,1.1c-0.2,0.2-0.2,0.4-0.4,0.7l-0.2,0.4c0,0,0,0-0.2,0
			c0,0.2-0.4,0.4-0.7,0.4h0.2c-1.5,0.9-3.3,1.3-5.1,1.5l-1.3,0.2c-0.2,0-0.7,0-0.9,0.2c-0.4,0.2-1.1,0.4-1.8,0.4h-0.2
			c-0.4,0.2-1.1,0.4-1.5,0.2c-0.2,0-2.4,0.7-2.4,0.7l-0.9,0.2c-0.1,0-0.3,0-0.4,0c-0.2,0.4-0.4,1.1-0.9,1.5
			c-0.4,0.4-0.7,0.9-0.7,1.1c0,0.2,0,0.2,0.2,0.4l0.2,0.2L74.9,85c0,0.2,0,0.2,0,0.4c0,0.4,0,0.9,0.2,1.1l0.2,0.4
			c0,0.2,0.2,0.7,0.2,0.9c0.2,0.2,0.2,0.7,0.2,1.1c0,0.2-0.2,0.7-0.2,0.9c0,0.7,0,1.3,0.2,2c0,0.7,0.2,1.3,0.2,2v0.2
			c0,0.9,0.2,1.5,0.4,2.4c0.2,0.7,0.4,1.5,0.4,2.4c0.2,0.7,0.4,1.1,0.4,1.8c0,0.7,0.2,1.3,0.4,2v0.2v0.2c0,0.2,0,0.2,0,0.4
			c0.2,0.2,0.2,0.4,0.2,0.7v0.2c0,0.2,0.2,0.7,0.2,0.9c0,0.2,0,0.4,0,0.4l0.2,0.2v0.4v0.2c0,0.2,0,0.7,0.2,0.9
			c0.2,0.4,0.2,0.7,0.2,1.1c0,0.2,0.2,0.4,0.2,0.7c0.4,0,4.2-0.2,4.4-0.2c0.7-0.2,1.3-0.4,2-0.2c1.3-0.2,2.4-0.4,3.8-0.4l2.2-0.2
			h0.2c0.7,0.2,1.3,0.2,2,0c0.7-0.2,1.1-0.2,1.8-0.2l0.4-0.2c0.2-0.2,0.7-0.2,1.1-0.2c0.4-0.2,1.1-0.4,1.8-0.4
			c0.7,0,1.3-0.2,1.8-0.4l0.2-0.2h0.2c0.4,0,0.9,0,1.3-0.2c0.7-0.2,1.1-0.2,1.8-0.2c0.2,0,0.7-0.2,0.9,0c1.3,0.2,2.7,0.2,4-0.2h0.2
			h0.2c0.4,0.2,0.9,0.2,1.3,0c0.9,0,1.5,0,2.2,0.2c0.2,0,1.1-0.2,1.1-0.2l1.1-0.2h0.2h0.2c0.4,0.2,1.1,0.2,1.8,0
			c0.7-0.2,1.5-0.2,2.4,0c0.4-0.2,0.7-0.2,1.1-0.2c0.4,0.2,0.7,0,0.9,0l1.3-0.2c0.9-0.4,1.8-0.4,2.9-0.4c0.4,0,0.9,0,1.3-0.2
			c0.7-0.2,1.3-0.2,2-0.2c0.2,0,0.7,0,0.9,0c0.2,0,0.2,0,0.4,0c0.7-0.4,1.5-0.4,2.4-0.4c0.4,0,1.1,0,1.5-0.2h0.2h0.2
			c1.8,0.2,3.8-0.2,5.5-0.7h0.2h0.2c0.4,0.2,1.1,0.2,1.5,0l0.2-0.2l0.2,0.2c0.2,0,0.4,0,0.7,0c0.2,0,0.4,0,0.7,0h1.8
			c1.3,0.2,2.4,0,3.5-0.7c0.2-0.2,0.2-0.7,0.2-0.9c0-0.4,0-0.7,0-0.9c0-0.2,0-0.7,0-0.9c0-0.4,0-0.7,0.2-1.1c0-0.2-0.2-1.5-0.2-1.5
			c-0.2-0.9-0.4-2-0.7-2.9v-0.2v-0.2c0-0.7-0.7-1.3-1.1-1.8l-0.2-0.2v-0.2c-0.2-0.4-0.4-0.7-0.7-0.9l-1.3-1.3
			c-0.4-0.4-0.9-1.1-1.3-1.5c-0.4-0.9-1.3-1.8-2-2.4l-0.4-0.4c0-0.4-0.2-0.7-0.4-0.9c-0.4-0.7-0.7-1.3-0.9-2
			c-0.2-0.2-0.4-0.7-0.7-1.1l-0.4-0.9l-0.2-1.1c-0.4-0.7-0.4-1.5-0.7-2.4c-0.2-0.7-0.2-1.3-0.2-2.2c0-0.4,0-0.7,0-0.9
			c0-0.4,0-0.7,0-0.9c0-0.4,0-0.9,0-1.3v-0.2l0.4-2.2c0.2-1.3,0.4-2.4,0.9-3.5c0.2-0.2,0.4-1.3,0.4-1.3c0.2-0.4,0.4-1.1,0.4-1.5
			v-0.2l0.2-0.2c0-0.2,0-0.7,0.2-0.9l0.2-0.7l0.2-0.2c0,0,0.2-0.2,0.2-0.7c0-0.4,0.2-0.7,0.4-1.1c0.2-0.4,0.4-0.9,0.7-1.1
			c0.2-0.2,0.4-0.4,0.4-0.7v-0.2l0.2-0.2l-0.2-0.2l0.9-0.4c0.2,0,0.2-0.2,0.4-0.7c0.2-0.7,0.7-1.1,1.1-1.3c0.7-0.4,1.3-0.9,1.8-1.5
			c0.7-0.9,1.5-1.5,2.7-2c0.2-0.2,0.7-0.4,0.9-0.4l0.9-0.7c0.9-0.7,1.8-0.9,2.7-1.1c0.7-0.4,1.5-0.4,2.4-0.4c0.7,0,1.1,0,1.5,0
			l1.8-0.2c1.1-0.2,2.2-0.4,3.3-0.7l-1.1-0.4c1.3,0.2,2.7,0.2,4,0.2h1.3h0.2l0.2,0.2h0.2c0.2,0,0.7,0,0.9,0.2c0.4,0,1.1,0.2,1.5,0.4
			c0.4,0.2,0.7,0.2,0.9,0.2h0.7l0.2,0.4h0.2c0.2,0,0.7,0.2,0.9,0.4h0.2c0.4,0,0.7,0.2,0.9,0.4c0,0.2,0.2,0.2,0.2,0.2
			c0.9,0.4,1.5,0.9,2.2,1.5c0.7,0.7,1.3,1.1,2,1.5l0.2,0.2v0.2c0.2,0.2,0.2,0.7,0.4,0.7h0.4l0.2,0.4c0,0.4,0.4,0.7,0.7,0.9
			c0.4,0.2,0.9,0.7,1.1,1.1c0.4,0.4,0.9,1.1,1.3,1.5c0,0.2,0.2,0.4,0.4,0.7c0.4,0.2,0.9,0.7,0.9,1.3l0.2,0.2
			c0.7,0.9,1.3,1.8,1.8,2.9c0.7,0.7,1.1,1.5,1.1,2.4c0.4,0.4,0.7,0.9,0.7,1.3c0,0.2,0,0.4,0.2,0.7l0.2,0.2v0.2v0.2
			c0,0.7,0.2,1.1,0.2,1.5l0.2,1.1V70c-0.2,0.2-0.2,0.4-0.2,0.7v0.2v0.2c0,0.2,0,0.7-0.2,1.1c0.2,0.2,0.2,0.7,0.2,0.9
			c0,0.2-0.2,0.7-0.2,1.1l-0.2,0.9c0,0.4-0.2,0.7-0.4,0.9v0.2v0.2c0,0.4,0,0.9-0.4,1.1V78l-0.2,1.3v0.2l-0.2,0.2
			c-0.2,0.2-0.2,0.2-0.2,0.2v0.2v0.2c0,0.2-0.2,0.7-0.7,0.9l-0.2,0.2c0,0.2-0.2,0.7-0.2,0.7c-0.2,0.4-0.4,0.9-0.4,1.3l-0.4,1.1
			l-0.2,0.9v0.2h-0.2c-0.4,0.2-0.7,0.7-0.9,1.1c-0.2,0.4-0.7,0.9-1.1,1.3c0,0.2,0,0.4-0.2,0.7l-0.2,0.2v0.2h-0.2
			c-0.4,0.2-0.9,0.7-0.9,1.1v0.2l-0.2,0.2c-0.4,0.2-0.9,0.7-0.9,1.1c0,0.4-0.2,0.9-0.7,1.3v0.2c-0.2,0.4-0.2,0.7-0.2,1.1v0.2V95v0.2
			c-0.4,1.1-0.7,2.4-0.7,3.8v0.4v1.3c0,0.2,0,0.2,0,0.4c0.2,0,0.4,0,0.7,0c0.4,0,0.4,0,0.4,0l0.4-0.4l0.7,0.4c0.2,0,0.2,0.2,0.4,0.2
			c0.3-0.3,0.8-0.4,1.1-0.2h0.2l0.7-0.4l0.4,0.7c0.2-0.2,0.7-0.2,0.9-0.2c0.4,0,0.9,0,1.3,0c0.2,0,0.7,0,0.9,0c0,0,0.9,0,1.1,0
			c0.2,0,0.7-0.2,0.9-0.2h0.7h0.2c0.2,0,0.4,0,0.7,0c0.4-0.2,0.9,0,1.3,0.2c1.5-0.4,2.9-0.7,4.4-0.7c0.2,0,0.7,0,0.9,0s0.2,0,0.4,0
			h0.4c0.2,0,0.4,0,0.4,0h0.2h0.4c0.4,0,0.9,0,1.3,0.2c0.2,0,0.2,0,0.4,0l0.2-0.4l0.7,0.4c0.4,0,0.9,0.2,1.3,0
			c0.4-0.2,1.1-0.2,1.5,0c0,0,0.2,0,0.7-0.2c0.7-0.4,1.3-0.4,2-0.2c0.7,0.2,1.5,0.2,2.2,0.2s1.3,0,2,0c0.4-0.2,0.7-0.2,1.1-0.2
			c0.2,0,0.2,0,0.4,0h0.7c0,0,0.2,0,0.4,0l0.4-0.2l0.4,0.2c0.2,0,0.2,0,0.4,0c0.2,0,0.7,0,0.9,0h1.5c0.9,0,1.5,0,2.4-0.2h0.2h0.2
			c0.4,0.2,1.1,0.2,1.5,0l0.4-0.2l0.2,0.2c0.2,0,0.4,0,0.7,0c0.4,0,0.9,0,1.3,0c0.4,0,1.1,0,1.5-0.2l0.2-0.2l0.2,0.2
			c0.2,0,0.7,0,1.1,0c0.4-0.2,1.1-0.2,1.5,0h0.2c0.2,0,0.2,0,0.4,0s0.7,0,0.9,0c0.2,0,0.2,0,0.2,0l0.2-0.2h0.4
			c0.4,0,0.7,0.2,1.1,0.4c0.2,0,0.4,0,0.7,0h0.2h0.2l0.2,0.2c0.4,0.2,0.4,0.2,0.7,0l0.2-0.2h0.2c0.4,0.2,0.7,0.2,1.1,0
			c0.7-0.2,1.3-0.2,2,0c0.7,0,1.1,0,1.8,0.2c0.4,0,0.9,0,1.3,0.2c0.4,0,0.4,0,0.4,0l0.2-0.2h0.2c0.4,0,0.7,0,0.9-0.2l0.2-0.2h0.2
			c0.9,0,2,0.2,3.1,0.4h0.2l0.2,0.4l0.2,0.2c0.2-0.2,0.7-0.2,1.1-0.2c0.4,0,0.9,0,1.3-0.2h0.4l0.2,0.2h2c0.2,0,0.2,0,0.4,0h0.2
			c0.7-0.2,1.3,0,2,0.2c0.2-0.2,0.2-0.2,0.2-0.2l0.4,0.2c0.4,0.2,0.7,0.2,1.1,0.2c0.4,0,1.1,0,1.5,0.2c0.2,0,1.5,0,1.5,0
			c1.1,0,2.2,0,3.3,0h0.4h0.2c0,0.2,0.2,0.2,0.2,0.2h0.2c0.2-0.2,0.7,0,0.9,0c1.3,0,2.7,0,3.8,0.2c0.4,0.2,0.7,0.2,1.1,0.2
			c0.7,0,1.3,0.2,1.8,0.4c0.4,0,0.9,0.2,1.1,0.4l0.4-0.2l0.2,0.2c0.7,0.4,1.1,0.7,1.8,0.7c0.4,0,0.9,0,1.3,0.2h0.2
			c0.2-0.2,0.4-0.2,0.7,0c0.7-0.2,1.1-0.2,1.8,0h0.2c0.9,0,1.8,0.2,2.4,0.4h0.7c0.4,0,0.7,0,0.9,0l0.4-0.2l0.2,0.2
			c0.2,0,0.4,0,0.7,0.2h0.2c0.2,0.2,2.9,0.4,2.9,0.4l1.5,0.2c2-0.2,4,0.4,5.5,1.5c0.4,0.2,0.7,0.4,0.9,0.9v0.2
			c0.7,0.2,1.1,0.7,1.5,1.1l0.4,0.2c0.4,0.2,1.1,0.9,1.5,1.3c0.4,0.4,0.9,0.9,1.5,1.3l0.2,0.2v0.2c0.2,0.4,0.7,0.9,1.1,1.3
			c0.7,0.7,1.1,1.5,1.3,2.4c0.4,0.2,0.7,0.7,0.7,1.1v-0.2c0.2,0,0.2,0.2,0.4,0.4c0.2,0.2,0.4,0.7,0.7,1.1c0.4,0,0.7,0.2,0.7,0.7v0.2
			l0.2,0.2c0,0.2,0.2,0.4,0.2,0.7c0.4,0.7,0.9,1.3,1.3,2l0.9,1.5c0,0,0,0.2,0.2,0.4c0.2,0.2,0.4,0.7,0.4,1.1c1.8,2,3.1,4.4,3.8,7.1
			l0.9,2.4l0.7,2.2l0.2,1.1c0.4,1.5,0.9,3.1,1.1,4.6v0.2v0.4c0,0.2,0,0.4,0,0.7c0,0.2-0.2,0.4-0.2,0.7l0.2,0.4
			c0.2,0.4,0.2,0.7,0.2,1.1c0,0.2-0.2,0.4-0.2,0.7c0.2,0.9,0.4,2,0.4,2.9c0,0.4,0,1.1,0,1.8c0,0.7,0,1.3,0,1.8c0,0.4,0,0.9,0,1.3
			v1.8l0.2,0.2v1.3v0.4c0,0.2,0,0.2,0,0.4c0.7-0.7,1.1-1.5,1.5-2.4v-0.2c0,0,1.1-1.1,1.3-1.3c0-0.4,0.2-0.7,0.4-0.9v-0.2l1.1-1.1
			c0.9-0.7,1.3-1.5,1.8-2.4V150l0.2-0.2c0.4-0.2,0.7-0.4,0.9-0.9c0.4-0.4,0.7-0.9,1.1-1.1c0-0.2,0.4-0.9,0.4-0.9
			c0.4-0.7,0.7-1.5,0.9-2.4v-0.2l0.4-0.9c0.2-0.4,0.4-0.9,0.9-1.3c0.9-1.8,1.8-3.5,2.9-5.1c0.7-1.3,1.8-2.9,2-3.5
			c-0.2-0.2-0.2-0.4-0.2-0.7v-0.2v-0.2l-0.2-0.2l-0.2-0.2l-0.2-0.2c-0.2,0-0.7-0.4-0.9-0.7c-0.2,0-0.4-0.2-0.7-0.4
			c-0.2-0.2-0.2-0.2-0.4-0.2c-0.4,0-0.7,0-0.9-0.2h-0.2l-0.2-0.2c-0.4-0.2-0.7-0.4-1.1-0.4c-0.4-0.2-0.9-0.4-1.3-0.7l-0.2-0.2
			c-0.4,0-1.1-0.2-1.5-0.4c-2.2,0-4.2-1.1-5.1-3.1v-0.2c0-0.7,0.2-1.3,0.7-2c0.2-0.2,0.4-0.7,0.4-1.1v-0.2l0.2-0.2
			c0.4-0.4,0.9-0.9,1.1-1.5c0.4-0.7,0.7-1.3,1.1-1.8c0.2,0,0.4-0.7,0.4-0.7c0.2-0.4,0.4-0.7,0.4-1.1l1.1-1.5l0.9-1.3
			c0.4-0.4,0.7-0.9,0.9-1.5v-0.2l0.7-0.4l0.4-0.2c0.2,0,0.4-0.2,0.4-0.4c0.2-0.2,0.4-0.7,0.7-0.9c0.2-0.7,0.4-1.1,0.9-1.8
			c0.2-0.4,0.7-0.9,0.9-1.3c0.2-0.2,0.4-0.4,0.7-0.9v-0.2h0.2c0.7-0.2,1.1-0.7,1.3-1.3l0.4-0.7c0.7-0.7,1.1-1.1,1.5-2
			c0.2-0.9,0.9-1.5,1.8-2.2c0.4-0.7,0.9-1.3,1.5-1.8c0.4-0.2,0.9-0.7,1.1-1.1v-0.2h0.2c0.2-0.2,0.4-0.4,0.7-0.7l0.4-0.7h0.2
			c0.4-0.2,0.9-0.7,1.3-1.1L343,93h0.2c0.4,0,0.9-0.2,1.1-0.4c0.4-0.2,1.1-0.4,1.5-0.7c1.5-0.9,3.1-1.3,4.9-1.3c0.4,0,1.1,0,1.5,0
			c0.4,0,0.9,0.2,1.3,0.4c0.2,0.2,0.7,0.2,1.1,0.2l0.7-0.2h0v0.4c0.4,0.2,0.9,0.4,1.1,0.7c0.2,0.2,0.4,0.4,0.7,0.9
			c0.7,0.2,1.1,0.7,1.3,1.3l0.4,0.7v0.2l0.2,1.1l0.4,2h-0.2v0.2v0.2v0.2c0.2,0.2,0.2,0.4,0.2,0.7c0.2,0.2,0.2,0.7,0.2,0.9
			c0,0.2-0.2,0.4-0.2,0.7C359.8,101.8,359.8,102.3,359.8,102.7z M1305.5,333.7H374.6V19.4h930.9V333.7z"/>
		<path class="st0" d="M140.9,182.4C140.9,182.4,140.9,182.5,140.9,182.4c-0.1,0.1-0.2,0.2-0.2,0.2L140.9,182.4z"/>
		<path class="st0" d="M181.5,101.4C181.5,101.4,181.5,101.4,181.5,101.4c-0.1,0.1-0.2,0.1-0.2,0.2L181.5,101.4z"/>
		<path class="st0" d="M222.9,194.1c0,0-0.1-0.1-0.1-0.2l-0.1,0L222.9,194.1z"/>
	</g>
</g>
</svg>
