<?xml version="1.0" encoding="utf-8"?>
<!-- Generator: Adobe Illustrator 26.2.1, SVG Export Plug-In . SVG Version: 6.00 Build 0)  -->
<svg version="1.1" id="Layer_1" xmlns="http://www.w3.org/2000/svg" xmlns:xlink="http://www.w3.org/1999/xlink" x="0px" y="0px"
	 viewBox="0 0 708.7 198.4" style="enable-background:new 0 0 708.7 198.4;" xml:space="preserve">
<style type="text/css">
	.st0{fill:#FFFFFF;}
</style>
<g>
	<path class="st0" d="M375.1,65.8c-3.7-0.5-7.4-0.7-11.1-1.1c0,22.5,0,45,0,67.5c5-0.1,9.9-0.3,14.6-1.3c16.6-3.7,28-21.5,24.9-37.7
		C400.6,78.8,389.7,67.9,375.1,65.8z"/>
	<path class="st0" d="M91.8,66.6c-4.8-1.1-9.7-1.4-14.6-2c0,22.7,0,45.1,0,67.4c2.4,0,4.8,0.2,7.2,0c3.2-0.3,6.4-0.7,9.4-1.6
		c15.4-4.4,25.7-21.3,23.1-36.4C114.7,80.6,105,69.6,91.8,66.6z"/>
	<path class="st0" d="M179.4,74.2c-3.1,12.2-6.2,24.3-9.3,36.6c6.5,0,12.8,0,19.2,0c-3.2-12.3-6.4-24.5-9.6-36.6
		C179.6,74.2,179.5,74.2,179.4,74.2z"/>
	<path class="st0" d="M693.7,0H15C6.7,0,0,6.7,0,15v168.4c0,8.3,6.7,15,15,15h678.7c8.3,0,15-6.7,15-15V15C708.7,6.7,702,0,693.7,0z
		 M121.1,140.7c-7.5,6.6-16,11.2-25.8,12.8c-4.7,0.8-9.5,0.9-14.2,1.2c-4.5,0.3-8.9,0.1-13.3-1c-6.7-1.6-12.1-7.6-12.8-14.4
		c-0.3-3.3-0.5-6.6-0.5-9.9c-0.1-10.4,0-20.9,0-31.3c0-11.3,0-22.6,0-33.8c0-3.1,0-6.2,1.1-9.1C58,48.3,62.6,44,70,43.1
		c11-1.3,21.8-0.9,32.3,2.6c14,4.7,24.3,13.8,31.3,26.8c4.7,8.7,6.7,18,6.5,27.8C139.7,116.5,133.2,130,121.1,140.7z M224.3,154.8
		c-7.5,0-15,0-22.6,0c-1,0-1.4-0.3-1.6-1.3c-1.7-6.7-3.4-13.4-5-20.2c-0.2-0.9-0.6-1.1-1.4-1.1c-9.4,0-18.7,0-28.1,0
		c-0.9,0-1.2,0.3-1.4,1.1c-1.7,6.8-3.5,13.6-5.2,20.4c-0.2,0.7-0.5,1-1.2,1c-7.5,0-15,0-22.6,0c-0.3,0-0.5-0.1-1-0.1
		c0.4-1.6,0.9-3.1,1.3-4.6c5-17.8,10-35.5,15-53.3c4-14,7.9-28.1,12-42.1c1.3-4.5,3.6-8.5,7.5-11.4c6.9-5.1,18.1-4.3,23.7,4.7
		c2.2,3.6,3.5,7.5,4.6,11.5c5.1,17.7,10.2,35.5,15.3,53.2c3.9,13.7,7.9,27.4,11.8,41.1c0.1,0.3,0.1,0.5,0.2,0.9
		C225.1,154.8,224.7,154.8,224.3,154.8z M299.3,46.2c-6.7,22.6-13.4,45.3-20.1,67.9c-2.9,9.8-5.8,19.5-8.7,29.2
		c-0.5,1.6-1.2,3.2-1.8,4.8c-3.3,8.6-11.8,11.7-19.9,9.4c-4.5-1.3-7.6-4.3-9.8-8.3c-2.4-4.3-3.7-9-5.1-13.7
		c-6.3-21.9-12.6-43.7-19-65.6c-2.5-8.6-5-17.2-7.4-25.7c-0.1-0.5-0.2-1-0.4-1.6c0.5,0,1-0.1,1.4-0.1c7.6,0,15.1,0,22.7,0
		c1,0,1.4,0.3,1.7,1.3c5.6,21.4,11.3,42.9,16.9,64.3c1.2,4.6,2.4,9.1,3.7,14c0.9-3.2,1.6-6,2.4-8.8c5.9-21.8,11.9-43.6,17.8-65.4
		c0.4-1.5,0.8-3,1.3-4.5c0.1-0.4,0.7-0.9,1-0.9c7.9,0,15.8,0,23.6,0c0.1,0,0.2,0.1,0.5,0.1C299.9,43.8,299.6,45,299.3,46.2z
		 M328.4,153.5c0,0.8,0,1.4-1.1,1.4c-6.9,0-13.8,0-20.8,0c-0.2,0-0.5,0-0.8-0.1c0-37.4,0-74.7,0-112.1c0.4,0,0.8-0.1,1.2-0.1
		c6.7,0,13.4,0,20,0c1.1,0,1.5,0.3,1.5,1.5C328.4,80.4,328.4,117,328.4,153.5z M425.5,100.6c-0.6,25.9-18.8,44.2-36.8,50.7
		c-5.1,1.8-10.3,2.8-15.7,3.1c-3.3,0.2-6.6,0.4-9.9,0.4c-4.3-0.1-8.6-0.1-12.6-1.9c-6-2.7-9.5-7.3-10.3-13.8
		c-0.4-3.5-0.5-7.1-0.6-10.6c-0.1-10.2,0-20.3,0-30.5c0-11.1,0-22.2,0-33.4c0-3.2,0-6.4,1.1-9.5c2.6-7.2,7.7-11.4,15.4-12.2
		c9.2-0.9,18.4-0.7,27.4,1.6c15,3.8,26.3,12.6,34.2,25.9C423.4,79.7,425.8,89.8,425.5,100.6z M492,143.2
		c-5.1,6.8-12.3,10.7-20.5,12.6c-8,1.8-16.1,1.8-24.1,0.1c-5.4-1.1-10.6-2.8-16-4.2c-1.1-0.3-1.4-0.8-1.4-1.9c0.1-7,0-14.1,0-21.1
		c0-0.4,0-0.9,0-1.6c0.9,0.4,1.7,0.8,2.4,1.1c6.4,2.9,12.9,5.5,19.8,6.7c5,0.9,10,1.3,14.9-0.6c7.7-3,9.9-11.3,6.8-17.1
		c-1.5-2.7-3.9-4.3-6.8-5.1c-5-1.5-10.1-2.8-15.2-4.4c-5.8-1.8-11.1-4.5-15.5-8.8c-4.7-4.7-7.4-10.5-8.4-17
		c-1.6-10.1,0.6-19.4,6.8-27.6c5.8-7.7,13.5-12.4,23.2-13.7c10.3-1.4,20.5-0.2,30.5,2.5c0.7,0.2,1.1,0.4,1.1,1.2
		c0,7.3,0,14.6,0,21.8c0,0.2-0.1,0.5-0.1,0.8c-2.8-1.1-5.4-2.1-8.1-3c-4.2-1.5-8.6-2.4-13.1-2.4c-5.4-0.1-10.4,1-14.1,5.5
		c-3,3.7-3.4,7.8-1.6,12.2c1.1,2.7,3.4,4.1,6,5c4.2,1.5,8.5,2.6,12.8,4c2.9,0.9,5.9,1.7,8.8,2.8c7.1,2.5,12.2,7.5,15.2,14.2
		C501.6,118.5,500.9,131.4,492,143.2z M562.1,62.7c0,0.3,0,0.7-0.1,1.2c-11.1,0-22.1,0-33.2,0c0,7,0,13.9,0,21c0.7,0,1.3,0,2,0
		c9.2,0,18.3,0,27.5,0c1,0,1.5,0.2,1.5,1.4c-0.1,6.4,0,12.7,0,19.1c0,0.3,0,0.6-0.1,1c-10.3,0-20.5,0-30.8,0c0,9,0,17.9,0,27
		c11,0,22.1,0,33.2,0c0,0.6,0.1,1,0.1,1.4c0,6.3,0,12.6,0,18.8c0,1.1-0.4,1.3-1.4,1.3c-10.6,0-21.2,0-31.8-0.1c-3,0-6.1-0.3-9.1-0.8
		c-7.7-1.2-12.3-7.5-13.3-14.2c-0.4-2.5-0.5-5.1-0.6-7.6c0-22.4,0-44.7,0-67.1c0-4.2,0.7-8.3,2.1-12.2c1.6-4.5,4.8-7.3,9.2-8.8
		c3.3-1.1,6.8-1.6,10.3-1.6c11-0.1,22.1,0,33.1,0c1.1,0,1.4,0.3,1.4,1.4C562.1,50.2,562.1,56.4,562.1,62.7z M654.4,57.1
		c0,24.8,0,49.6,0,74.4c0,4.5,0,9-1,13.4c-1.3,5.9-6.6,10.4-12.6,10.9c-7.2,0.6-12.7-2.2-15.9-8.7c-4-8.1-7.8-16.3-11.6-24.5
		c-5.8-12.5-11.6-25.1-17.4-37.6c-0.2-0.5-0.4-0.9-0.9-1.4c0,0.5,0,1,0,1.5c0,22.6,0,45.2,0,67.8c0,1.9,0,1.9-1.9,1.9
		c-6.4,0-12.9,0-19.3,0c-0.5,0-1,0-1.6-0.1c0-0.5,0-1,0-1.4c0-29.8,0-59.7,0-89.5c0-3.2-0.1-6.4,0.5-9.6c1.4-7.8,8-13.1,15.9-12.9
		c5.4,0.1,9.8,2.2,12.9,6.8c3.2,4.7,5.5,9.9,7.9,15.1c5.9,12.6,11.7,25.2,17.6,37.8c1.5,3.2,3,6.4,4.5,9.6c0.1,0,0.2,0,0.2-0.1
		c0-0.9,0-1.8,0-2.7c0-21.2,0-42.3,0-63.5c0-1.8,0-1.8,1.8-1.8c6.5,0,13,0,19.6,0c1,0,1.5,0.2,1.4,1.4
		C654.3,48.3,654.4,52.7,654.4,57.1z"/>
</g>
</svg>
